
<svg width="512" height="512" viewBox="0 0 512 512" fill="none" xmlns="http://www.w3.org/2000/svg">
<g clip-path="url(#clip0_445_5056)">
<path d="M190.493 262.704C190.493 232.449 219.638 207.926 255.57 207.926C291.409 207.926 320.639 232.526 320.639 262.704C320.639 292.875 291.411 317.488 255.57 317.488C219.638 317.487 190.493 292.961 190.493 262.704ZM1.03091 360.443C2.35097 353.277 4.63938 346.17 8.05179 338.72C4.33555 334.316 2.12797 328.947 2.12797 323.133C2.12797 308.246 16.4601 296.179 34.1418 296.179C34.8886 296.179 35.6235 296.232 36.3554 296.274C44.2922 286.979 53.4564 277.522 64.1336 267.582C66.5044 265.387 69.0457 263.094 72.051 260.443C70.3463 259.038 68.6506 257.62 66.9743 256.188C56.9361 247.594 47.7885 238.783 39.7813 229.996C38.4567 228.543 37.1815 227.051 35.9034 225.561L34.0116 223.351L34.0535 223.338C26.9952 214.875 15.7611 200.203 9.7086 186.005C6.45783 178.76 4.30563 171.896 3.13672 165.046C1.94537 158.019 1.9783 151.282 3.237 145.018C3.98534 141.397 5.11831 137.965 6.60899 134.81C8.21193 131.44 10.2639 128.245 12.705 125.308C17.3087 119.774 23.7743 114.933 31.4088 111.308C34.6851 109.771 38.2427 108.438 42.2957 107.229C45.6976 106.202 49.321 105.37 53.3636 104.692C60.7392 103.459 68.3498 102.86 76.6249 102.86C82.7283 102.86 89.1909 103.191 96.3764 103.869C109.537 105.193 122.808 107.421 136.948 110.686C145.792 112.702 154.676 114.986 164.044 117.651C166.602 109.728 169.371 102.058 172.282 94.8258C176.926 83.1707 182.121 72.6547 188.167 62.6855C195.893 50.1875 203.773 40.7802 212.966 33.0702C215.706 30.7657 218.417 28.7874 221.223 27.0171C221.223 26.997 221.218 26.9743 221.218 26.9541C221.218 12.0671 235.552 0 253.237 0C268.989 0 282.054 9.58616 284.724 22.2026C290.17 24.6534 295.456 27.7958 300.481 31.6073C310.428 39.1548 318.944 48.4726 327.286 60.9316C330.326 65.4903 333.297 70.5832 336.624 76.9564C339.535 82.7272 341.976 88.1087 344.101 93.4285C347.036 100.758 349.687 108.525 351.989 116.541C360.135 114.282 367.699 112.359 375.052 110.682C384.881 108.416 394.877 106.582 404.788 105.225L404.784 105.205L406.843 104.916C407.877 104.789 408.882 104.678 409.89 104.566L411.538 104.362C412.164 104.28 412.791 104.198 413.423 104.128L415.353 103.921L415.368 104.013C422.091 103.408 428.612 103.103 434.777 103.103C461.157 103.103 474.966 108.692 478.57 110.403C479.192 110.665 479.894 110.974 480.587 111.299C488.232 114.932 494.702 119.774 499.303 125.304C501.735 128.23 503.783 131.425 505.39 134.802C506.881 137.951 508.018 141.383 508.77 145.007C510.027 151.274 510.061 158.012 508.868 165.04C506.971 176.186 502.53 187.332 494.896 200.124C492.118 204.758 488.752 209.671 484.304 215.584C480.228 220.833 476.281 225.539 472.218 229.993C464.242 238.758 455.094 247.571 445.031 256.183C443.355 257.618 441.66 259.034 439.956 260.442C442.949 263.084 445.49 265.376 447.864 267.576C469.585 287.785 485.07 306.007 496.6 324.924C504.302 337.723 508.873 349.008 510.979 360.442C511.639 364.002 511.973 367.302 511.995 370.53C512.041 374.334 511.766 377.775 511.152 381.046C509.726 388.717 506.438 395.884 501.644 401.767C496.832 407.722 490.153 412.929 482.334 416.828C475.644 420.138 468.005 422.634 459.619 424.249C456.06 424.935 452.421 425.439 448.717 425.844C443.941 435.669 432.484 442.595 419.093 442.595C404.193 442.595 391.709 434.013 388.135 422.412C383.203 421.482 378.415 420.475 373.849 419.392C366.768 417.734 359.333 415.704 351.182 413.211C349.099 420.293 346.949 426.622 344.637 432.503C342.563 437.833 340.107 443.401 337.339 449.047C335.275 453.106 333.295 456.732 331.278 460.137L331.137 460.398C317.598 484.727 300.681 496.513 294.036 500.452C289.877 503.092 285.8 505.209 281.639 506.894C273.445 510.184 264.584 511.95 256.01 511.999L255.528 512C247.213 512 238.481 510.3 230.276 507.088C226.702 505.691 223.161 503.965 219.439 501.809C216.29 500.01 213.22 497.936 210.062 495.479C199.964 487.631 191.381 478.15 183.058 465.637C173.163 450.578 165.044 433.67 158.259 413.991C151.084 416.136 144.482 417.909 138.147 419.397C131.716 420.921 124.857 422.307 117.764 423.513C109.649 424.815 102.956 425.644 96.6817 426.125C90.8866 426.566 85.5764 426.782 80.4458 426.782C70.4062 426.782 61.2271 425.954 52.3832 424.253C44.0019 422.639 36.3614 420.144 29.6727 416.835C21.8481 412.933 15.17 407.725 10.3552 401.767C5.57031 395.896 2.28062 388.729 0.842318 381.047C0.234668 377.774 -0.0377223 374.334 0.00418454 370.529C0.038608 367.292 0.36938 363.99 1.03091 360.443ZM161.268 314.03C172.942 321.974 185.078 329.504 197.355 336.413C216.205 347.011 235.931 356.566 256.007 364.822C276.065 356.574 295.798 347.019 314.66 336.413C329.64 327.984 344.252 318.736 358.106 308.922C360.119 293.706 361.162 278.218 361.211 262.882C361.24 250.448 360.581 237.769 359.254 225.188L358.035 224.298C353.048 220.643 347.969 217.029 342.92 213.545C333.173 206.799 322.627 199.914 311.582 193.083C302.721 187.677 290.984 180.638 278.84 174.179C271.191 170.057 263.519 166.132 256.006 162.503C248.462 166.149 240.789 170.072 233.187 174.174C221.144 180.577 209.866 187.328 200.418 193.09C189.366 199.928 178.825 206.813 169.097 213.545C164.897 216.442 160.615 219.477 156.026 222.811C155.937 225.002 155.856 227.195 155.802 229.387C155.396 241.497 155.793 253.62 156.183 262.829C156.787 274.641 157.674 285.536 158.897 296.124C159.505 301.459 160.236 307.028 161.069 312.68L161.268 314.03ZM208.322 381.846C221.533 377.79 233.564 373.645 245.11 369.169C245.355 369.075 245.605 368.978 245.849 368.881C228.706 360.173 211.206 350.764 193.786 340.887C183.21 334.864 172.719 328.719 162.556 322.588C162.902 324.78 163.269 326.971 163.653 329.159C167.884 352.915 172.563 372.351 178.336 390.139C188.835 387.539 198.913 384.752 208.322 381.846ZM330.788 406.47C309.959 399.025 288.07 389.634 262.093 377.001C260.609 376.278 259.137 375.541 257.67 374.801L256.009 373.971L254.347 374.803C252.881 375.541 251.412 376.279 249.929 377.001C224.957 389.139 203.878 398.235 183.773 405.546C186.382 412.371 189.052 418.65 191.912 424.699C197.086 435.67 202.455 445.053 208.337 453.393C215.643 463.628 222.776 471.318 230.142 476.891C234.44 480.148 238.744 482.651 242.946 484.33C247.193 486.006 251.602 486.899 256.049 486.981H256.267C260.502 486.981 264.861 486.15 269.214 484.508C270.272 484.091 271.417 483.585 272.689 482.968C279.976 479.039 291.674 470.456 305.637 452.098L305.753 451.935C308.715 447.768 311.309 443.821 313.671 439.863C316.244 435.658 318.848 431.004 321.873 425.199C325.004 419.116 328 412.82 330.788 406.47ZM354.737 329.758C355.464 326.014 356.148 322.114 356.784 318.113C344.167 325.841 331.216 333.492 318.227 340.886C300.802 350.767 283.305 360.175 266.162 368.883C266.407 368.979 266.657 369.076 266.903 369.172C278.432 373.642 290.468 377.788 303.691 381.849C314.205 385.092 325.439 388.167 337.118 390.989C340.853 381.222 344.085 371.66 346.732 362.535C350.056 351.199 352.749 340.172 354.737 329.758ZM427.767 282.436C425.649 280.328 423.364 278.122 420.667 275.576C418.832 276.945 416.992 278.306 415.139 279.653C410.245 283.221 405.138 286.811 399.524 290.618C394.148 294.327 388.735 297.88 383.651 301.203C378.403 304.617 372.74 308.225 366.357 312.215C365.987 319.075 365.589 325.148 365.149 330.753C363.124 355.952 360.183 376.486 355.911 395.196C363.732 396.79 371.615 398.203 379.364 399.405C384.071 400.119 388.249 400.696 392.128 401.162C397.815 393.672 407.756 388.693 419.1 388.693C430.778 388.693 440.964 393.976 446.559 401.839C448.695 401.51 450.748 401.124 452.727 400.683C458.058 399.521 462.927 397.83 467.221 395.651C471.309 393.505 474.607 390.868 476.988 387.826C479.373 384.692 480.949 381.114 481.662 377.204C482.349 373.327 482.284 368.923 481.467 364.118C480.075 355.853 476.468 346.58 470.444 335.762C465.511 327.02 459.252 318.034 451.314 308.295C444.294 299.674 436.373 290.975 427.767 282.436ZM367.603 262.881C367.632 276.035 367.36 289.389 366.794 302.632C370.387 299.968 373.845 297.322 377.115 294.745C386.399 287.462 395.519 279.658 405.005 270.888C406.765 269.268 408.506 267.639 410.226 265.998C399.322 256.292 387.08 246.231 372.843 235.283C370.905 233.796 368.946 232.323 366.978 230.858C367.355 241.369 367.566 252.122 367.603 262.881ZM354.708 126.763C354.732 126.855 354.755 126.946 354.774 127.038C357.336 137.549 359.457 148.664 361.256 161.017C362.045 166.446 362.735 172.015 363.357 178.041C363.964 183.378 364.432 188.697 364.948 195.034C365.23 198.515 365.451 201.991 365.673 205.466L365.71 206.075C367.75 207.311 369.787 208.553 371.802 209.816C377.253 213.25 382.685 216.791 387.964 220.344C401.398 229.361 414.485 239.092 426.884 249.289C428.095 248.013 429.304 246.734 430.494 245.446C438.841 236.446 446.504 227.447 453.267 218.697C457.521 213.161 460.62 208.895 463.322 204.864C466.471 200.299 469.442 195.545 472.158 190.716C478.233 179.923 481.972 170.498 483.584 161.9C484.073 159.35 484.335 157.067 484.383 154.913C484.444 152.137 484.339 150.077 484.04 148.235C483.316 143.841 481.716 139.918 479.285 136.579C476.685 133.107 473.17 130.116 468.847 127.707C467.909 127.183 466.885 126.661 465.796 126.157C449.284 119.197 424.971 118.442 415.289 118.442H414.632C403.756 118.717 391.814 119.9 378.182 122.053C370.637 123.284 362.937 124.827 354.708 126.763ZM336.223 131.573C314.533 137.773 292.03 146.089 269.274 156.309C274.946 158.784 280.602 161.338 286.09 163.898C300.259 170.539 311.073 175.839 321.168 181.085C333.078 187.269 344.534 193.573 355.22 199.822C355.383 199.917 355.543 200.01 355.706 200.106C355.461 198.738 355.204 197.369 354.939 196.003C352.95 185.569 350.267 174.537 346.963 163.208C343.926 152.704 340.313 142.065 336.223 131.573ZM175.588 121.059L175.791 121.118C199.847 128.463 224.18 137.292 250.179 148.114C252.126 148.933 254.069 149.753 256.007 150.575C257.95 149.753 259.888 148.933 261.835 148.117C286.421 137.88 309.548 129.423 332.474 122.286C329.274 114.646 325.888 107.284 322.396 100.379C319.403 94.4831 316.85 89.7996 314.367 85.6416C311.576 80.8246 308.542 76.1021 305.336 71.5786C298.088 61.3209 290.875 53.4572 283.291 47.5238C281.509 46.1252 279.816 44.9282 278.146 43.8736C272.276 49.9896 263.308 53.9057 253.244 53.9057C243.691 53.9057 235.143 50.3664 229.276 44.782C228.558 45.2444 227.837 45.6867 227.117 46.1844C218.876 51.8746 211.037 59.6438 203.149 69.9381C196.96 77.987 191.101 87.4875 185.235 98.9813C181.739 105.945 178.497 113.366 175.588 121.059ZM158.092 195.992C157.963 197.086 157.842 198.179 157.73 199.274C168.151 193.205 179.286 187.089 190.857 181.084C200.9 175.861 211.715 170.561 225.918 163.9C231.472 161.31 237.128 158.76 242.741 156.311C218.361 145.352 195.262 136.915 172.214 130.547C165.479 150.714 160.859 172.125 158.092 195.992ZM81.519 245.444C82.7103 246.733 83.9182 248.013 85.1275 249.289C97.5334 239.087 110.62 229.355 124.054 220.342C129.297 216.809 134.732 213.268 140.201 209.818C141.368 209.089 142.537 208.378 143.704 207.666L144.246 207.336C144.818 203.164 145.436 198.998 146.075 194.837C149.906 170.613 154.765 148.684 160.929 127.786L160.98 127.619C151.782 125.362 142.654 123.491 133.814 122.053C119.244 119.748 106.612 118.547 95.2106 118.379C94.0551 118.36 92.9027 118.353 91.7487 118.353C78.7202 118.353 67.8214 119.511 58.4283 121.896C52.5344 123.38 47.4008 125.334 43.1608 127.705C38.8369 130.12 35.3182 133.111 32.7065 136.598C30.2968 139.909 28.6999 143.833 27.9695 148.24C27.6732 150.102 27.5669 152.163 27.6298 154.912C27.6806 157.069 27.9411 159.353 28.4275 161.894C28.7703 163.709 29.2178 165.584 29.7895 167.576L29.9451 167.481L30.6456 170.361C31.1754 171.985 31.786 173.682 32.4431 175.342C35.1221 181.833 42.1176 196.133 58.7695 218.733C65.5061 227.444 73.166 236.441 81.519 245.444ZM139.021 262.822C139.412 254.17 140.069 245.082 141.131 233.792C140.476 234.289 139.819 234.786 139.169 235.287C124.921 246.246 112.675 256.31 101.787 266.001C103.511 267.641 105.249 269.27 107.003 270.888C116.498 279.663 125.618 287.465 134.89 294.744C136.094 295.692 137.298 296.632 138.514 297.565C138.509 297.401 138.509 297.235 138.506 297.07C138.304 286.17 138.479 274.646 139.021 262.822ZM60.7871 308.195C64.1741 312.471 66.1586 317.604 66.1586 323.132C66.1586 337.869 52.1018 349.825 34.6671 350.063C32.6586 355.078 31.2847 359.745 30.5483 364.113C29.7311 368.925 29.6652 373.331 30.3537 377.208C31.0631 381.11 32.6391 384.69 35.0413 387.842C37.4075 390.863 40.7047 393.5 44.8145 395.661C49.089 397.828 53.9622 399.519 59.2724 400.676C68.9918 402.848 80.4638 403.657 94.8154 403.174C101.04 402.961 107.37 402.514 113.629 401.845C119.283 401.292 125.325 400.514 132.656 399.403C139.187 398.39 145.898 397.209 152.629 395.888C146.681 374.775 142.598 353.084 140.488 331.393C139.924 325.714 139.46 319.943 139.114 314.24C138.994 312.117 138.904 310.001 138.824 307.886L138.176 307.476C134.899 305.399 131.62 303.321 128.366 301.203C123.267 297.869 117.84 294.306 112.481 290.609C106.798 286.752 101.69 283.168 96.8748 279.652C95.0265 278.305 93.1841 276.944 91.3521 275.574C88.6536 278.121 86.3697 280.327 84.2519 282.434C75.6834 290.933 67.7945 299.6 60.7871 308.195Z" fill="black"/>
</g>
<defs>
<clipPath id="clip0_445_5056">
<rect width="512" height="512" fill="white"/>
</clipPath>
</defs>
</svg>
