<?xml version="1.0" encoding="utf-8"?>
<!-- Generator: Adobe Illustrator 16.0.0, SVG Export Plug-In . SVG Version: 6.00 Build 0)  -->
<!DOCTYPE svg PUBLIC "-//W3C//DTD SVG 1.1//EN" "http://www.w3.org/Graphics/SVG/1.1/DTD/svg11.dtd">
<svg version="1.1" id="Layer_1" xmlns="http://www.w3.org/2000/svg" xmlns:xlink="http://www.w3.org/1999/xlink" x="0px" y="0px"
	 width="841.89px" height="595.28px" viewBox="0 0 841.89 595.28" enable-background="new 0 0 841.89 595.28" xml:space="preserve">
<path d="M376.277,302.386c0-24.012,19.473-43.475,43.481-43.475c23.946,0,43.476,19.524,43.476,43.475
	c0,23.945-19.529,43.479-43.476,43.479C395.75,345.864,376.277,326.399,376.277,302.386z M249.688,379.956
	c0.882-5.688,2.411-11.328,4.691-17.241c-2.483-3.495-3.958-7.756-3.958-12.37c0-11.815,9.576-21.392,21.39-21.392
	c0.499,0,0.99,0.042,1.479,0.075c5.303-7.377,11.426-14.882,18.56-22.771c1.584-1.742,3.282-3.562,5.29-5.666
	c-1.139-1.115-2.272-2.24-3.392-3.377c-6.707-6.82-12.819-13.813-18.169-20.787c-0.885-1.153-1.737-2.337-2.591-3.52l-1.264-1.754
	l0.028-0.01c-4.716-6.717-12.222-18.361-16.266-29.629c-2.172-5.75-3.61-11.198-4.391-16.634
	c-0.796-5.577-0.774-10.924,0.067-15.895c0.5-2.874,1.257-5.598,2.253-8.102c1.071-2.674,2.442-5.21,4.073-7.541
	c3.076-4.392,7.396-8.234,12.497-11.111c2.189-1.22,4.566-2.278,7.274-3.237c2.273-0.815,4.694-1.476,7.395-2.014
	c4.928-0.978,10.013-1.454,15.542-1.454c4.078,0,8.396,0.263,13.197,0.801c8.793,1.051,17.66,2.819,27.108,5.41
	c5.909,1.6,11.845,3.413,18.104,5.528c1.709-6.288,3.559-12.375,5.504-18.115c3.103-9.25,6.574-17.596,10.614-25.508
	c5.162-9.919,10.427-17.385,16.569-23.504c1.831-1.829,3.642-3.399,5.517-4.804c0-0.016-0.003-0.034-0.003-0.05
	c0-11.815,9.577-21.392,21.393-21.392c10.525,0,19.254,7.608,21.038,17.621c3.639,1.945,7.171,4.439,10.528,7.464
	c6.646,5.99,12.336,13.385,17.91,23.273c2.031,3.618,4.016,7.66,6.239,12.718c1.945,4.58,3.576,8.851,4.996,13.073
	c1.961,5.817,3.732,11.981,5.27,18.343c5.443-1.793,10.497-3.319,15.41-4.65c6.567-1.798,13.246-3.254,19.868-4.331l-0.003-0.016
	l1.376-0.229c0.691-0.101,1.362-0.189,2.036-0.278l1.101-0.162c0.418-0.065,0.837-0.13,1.259-0.185l1.29-0.165l0.01,0.073
	c4.492-0.48,8.849-0.722,12.968-0.722c17.626,0,26.852,4.436,29.26,5.794c0.416,0.208,0.885,0.453,1.348,0.711
	c5.108,2.883,9.431,6.726,12.505,11.115c1.625,2.322,2.993,4.858,4.067,7.538c0.996,2.499,1.756,5.223,2.258,8.099
	c0.84,4.974,0.863,10.321,0.066,15.899c-1.268,8.846-4.235,17.692-9.336,27.844c-1.856,3.678-4.105,7.577-7.077,12.27
	c-2.723,4.166-5.36,7.901-8.075,11.436c-5.329,6.956-11.441,13.95-18.165,20.785c-1.12,1.139-2.252,2.263-3.391,3.38
	c2,2.097,3.698,3.916,5.284,5.662c14.513,16.039,24.859,30.501,32.563,45.514c5.146,10.158,8.2,19.114,9.607,28.189
	c0.441,2.825,0.664,5.444,0.679,8.006c0.031,3.019-0.153,5.75-0.563,8.346c-0.953,6.088-3.15,11.776-6.353,16.445
	c-3.215,4.726-7.678,8.859-12.902,11.953c-4.47,2.627-9.574,4.608-15.177,5.89c-2.378,0.544-4.809,0.944-7.284,1.266
	c-3.191,7.797-10.846,13.294-19.793,13.294c-9.956,0-18.297-6.811-20.685-16.018c-3.295-0.738-6.494-1.537-9.545-2.397
	c-4.731-1.316-9.699-2.927-15.145-4.905c-1.392,5.62-2.828,10.643-4.373,15.311c-1.386,4.23-3.027,8.649-4.876,13.13
	c-1.379,3.221-2.702,6.099-4.05,8.801l-0.094,0.207c-9.046,19.309-20.349,28.663-24.789,31.789
	c-2.779,2.095-5.503,3.775-8.283,5.113c-5.475,2.611-11.395,4.012-17.124,4.051l-0.322,0.001c-5.556,0-11.39-1.349-16.872-3.898
	c-2.388-1.109-4.754-2.479-7.241-4.19c-2.104-1.428-4.155-3.074-6.265-5.024c-6.747-6.228-12.482-13.753-18.043-23.684
	c-6.611-11.951-12.036-25.37-16.569-40.988c-4.794,1.702-9.205,3.109-13.438,4.29c-4.297,1.21-8.88,2.31-13.619,3.267
	c-5.422,1.033-9.894,1.691-14.086,2.073c-3.872,0.35-7.42,0.521-10.848,0.521c-6.708,0-12.841-0.657-18.75-2.007
	c-5.6-1.281-10.705-3.261-15.174-5.887c-5.228-3.097-9.69-7.23-12.907-11.959c-3.197-4.659-5.395-10.347-6.356-16.444
	c-0.406-2.598-0.588-5.328-0.56-8.348C249.025,385.391,249.246,382.771,249.688,379.956z M356.75,343.12
	c7.8,6.305,15.909,12.281,24.112,17.764c12.594,8.411,25.774,15.995,39.188,22.547c13.402-6.546,26.586-14.129,39.189-22.547
	c10.009-6.689,19.772-14.029,29.028-21.818c1.345-12.076,2.042-24.368,2.075-36.539c0.019-9.868-0.421-19.931-1.308-29.916
	l-0.814-0.706c-3.332-2.901-6.726-5.769-10.099-8.534c-6.513-5.354-13.559-10.818-20.939-16.24
	c-5.92-4.29-13.762-9.877-21.876-15.003c-5.111-3.271-10.237-6.386-15.257-9.266c-5.04,2.893-10.167,6.007-15.246,9.262
	c-8.047,5.082-15.582,10.44-21.895,15.013c-7.384,5.427-14.427,10.891-20.927,16.234c-2.806,2.299-5.667,4.708-8.733,7.354
	c-0.06,1.739-0.114,3.479-0.15,5.219c-0.271,9.611-0.006,19.232,0.255,26.541c0.403,9.374,0.996,18.021,1.813,26.424
	c0.406,4.234,0.895,8.654,1.451,13.14L356.75,343.12z M388.189,396.942c8.827-3.219,16.866-6.509,24.58-10.061
	c0.164-0.075,0.331-0.152,0.494-0.229c-11.454-6.911-23.147-14.378-34.786-22.217c-7.066-4.78-14.076-9.657-20.866-14.523
	c0.231,1.74,0.476,3.479,0.733,5.215c2.827,18.854,5.953,34.279,9.81,48.397C375.169,401.46,381.903,399.248,388.189,396.942z
	 M470.015,416.485c-13.917-5.909-28.542-13.362-45.899-23.388c-0.991-0.574-1.975-1.159-2.955-1.746l-1.11-0.659l-1.11,0.66
	c-0.98,0.586-1.961,1.172-2.952,1.745c-16.685,9.633-30.769,16.852-44.202,22.654c1.743,5.417,3.527,10.4,5.438,15.201
	c3.457,8.707,7.044,16.154,10.974,22.773c4.882,8.123,9.648,14.226,14.569,18.649c2.872,2.585,5.748,4.571,8.555,5.904
	c2.838,1.33,5.784,2.039,8.755,2.104h0.146c2.829,0,5.742-0.66,8.65-1.963c0.707-0.331,1.472-0.732,2.322-1.222
	c4.869-3.118,12.685-9.93,22.014-24.5l0.078-0.129c1.979-3.307,3.712-6.44,5.29-9.581c1.719-3.337,3.459-7.031,5.48-11.638
	C466.15,426.521,468.152,421.524,470.015,416.485z M486.016,355.603c0.486-2.972,0.943-6.067,1.368-9.242
	c-8.43,6.133-17.083,12.205-25.762,18.073c-11.642,7.842-23.333,15.309-34.787,22.22c0.164,0.076,0.331,0.153,0.495,0.229
	c7.703,3.548,15.745,6.838,24.58,10.061c7.025,2.574,14.531,5.015,22.334,7.254c2.496-7.751,4.655-15.34,6.424-22.582
	C482.889,372.619,484.688,363.868,486.016,355.603z M534.811,318.046c-1.415-1.673-2.942-3.424-4.744-5.445
	c-1.226,1.087-2.455,2.167-3.693,3.236c-3.27,2.832-6.682,5.681-10.433,8.702c-3.592,2.944-7.209,5.764-10.606,8.401
	c-3.506,2.71-7.29,5.573-11.555,8.74c-0.247,5.444-0.513,10.264-0.807,14.712c-1.353,19.999-3.318,36.296-6.172,51.145
	c5.225,1.265,10.492,2.387,15.67,3.341c3.145,0.566,5.936,1.024,8.528,1.394c3.8-5.944,10.442-9.896,18.021-9.896
	c7.803,0,14.609,4.193,18.347,10.433c1.427-0.261,2.799-0.567,4.121-0.917c3.562-0.922,6.815-2.264,9.684-3.994
	c2.732-1.703,4.935-3.796,6.526-6.21c1.594-2.487,2.647-5.327,3.123-8.43c0.459-3.077,0.416-6.572-0.13-10.386
	c-0.93-6.559-3.34-13.919-7.365-22.504c-3.296-6.938-7.478-14.07-12.782-21.799C545.854,331.727,540.561,324.823,534.811,318.046z
	 M494.613,302.526c0.019,10.44-0.163,21.038-0.541,31.548c2.401-2.114,4.711-4.214,6.896-6.259
	c6.203-5.78,12.297-11.974,18.635-18.934c1.176-1.286,2.339-2.579,3.488-3.881c-7.285-7.703-15.465-15.688-24.977-24.377
	c-1.295-1.18-2.604-2.349-3.919-3.512C494.447,285.453,494.588,293.987,494.613,302.526z M485.997,194.497
	c0.016,0.073,0.031,0.145,0.044,0.218c1.712,8.342,3.129,17.163,4.331,26.967c0.527,4.309,0.988,8.729,1.404,13.511
	c0.405,4.236,0.718,8.457,1.063,13.487c0.188,2.762,0.336,5.521,0.484,8.279l0.025,0.483c1.363,0.981,2.724,1.967,4.07,2.969
	c3.642,2.726,7.272,5.536,10.799,8.356c8.976,7.156,17.72,14.879,26.004,22.972c0.809-1.013,1.617-2.028,2.412-3.05
	c5.577-7.143,10.697-14.285,15.216-21.229c2.842-4.394,4.913-7.78,6.718-10.979c2.104-3.623,4.089-7.396,5.904-11.228
	c4.059-8.566,6.557-16.046,7.634-22.87c0.327-2.024,0.502-3.836,0.534-5.545c0.041-2.203-0.029-3.838-0.229-5.3
	c-0.484-3.487-1.553-6.601-3.177-9.251c-1.737-2.755-4.086-5.129-6.974-7.041c-0.627-0.416-1.311-0.83-2.039-1.23
	c-11.032-5.524-27.277-6.123-33.746-6.123h-0.439c-7.267,0.218-15.246,1.157-24.354,2.866
	C496.64,191.736,491.495,192.96,485.997,194.497z M473.646,198.314c-14.492,4.921-29.527,11.521-44.732,19.632
	c3.79,1.964,7.569,3.991,11.236,6.023c9.467,5.27,16.692,9.477,23.437,13.64c7.958,4.908,15.612,9.911,22.752,14.871
	c0.109,0.075,0.216,0.149,0.325,0.225c-0.164-1.086-0.336-2.172-0.513-3.256c-1.329-8.281-3.121-17.037-5.329-26.028
	C478.793,215.085,476.379,206.641,473.646,198.314z M366.318,189.97l0.136,0.047c16.073,5.829,32.331,12.836,49.702,21.425
	c1.301,0.65,2.599,1.301,3.894,1.953c1.298-0.652,2.593-1.303,3.894-1.951c16.427-8.124,31.879-14.836,47.197-20.5
	c-2.138-6.064-4.4-11.907-6.733-17.387c-2-4.679-3.706-8.396-5.365-11.696c-1.865-3.823-3.892-7.571-6.034-11.161
	c-4.843-8.141-9.662-14.382-14.729-19.091c-1.191-1.11-2.322-2.06-3.438-2.897c-3.922,4.854-9.914,7.962-16.638,7.962
	c-6.383,0-12.094-2.809-16.014-7.241c-0.48,0.367-0.962,0.718-1.443,1.113c-5.506,4.516-10.744,10.682-16.014,18.852
	c-4.135,6.388-8.05,13.928-11.969,23.05C370.428,177.975,368.262,183.864,366.318,189.97z M354.628,249.44
	c-0.086,0.868-0.167,1.736-0.242,2.605c6.963-4.817,14.403-9.671,22.134-14.437c6.71-4.145,13.936-8.351,23.426-13.638
	c3.711-2.055,7.49-4.079,11.24-6.023c-16.289-8.697-31.723-15.393-47.122-20.447C359.564,213.505,356.477,230.498,354.628,249.44z
	 M303.466,288.687c0.796,1.023,1.603,2.039,2.411,3.052c8.289-8.097,17.033-15.821,26.009-22.974
	c3.503-2.804,7.134-5.614,10.788-8.352c0.78-0.579,1.561-1.143,2.341-1.708l0.362-0.262c0.382-3.311,0.795-6.617,1.222-9.92
	c2.56-19.225,5.806-36.629,9.925-53.214l0.034-0.133c-6.146-1.791-12.245-3.276-18.151-4.417c-9.735-1.83-18.175-2.783-25.793-2.916
	c-0.772-0.015-1.542-0.021-2.313-0.021c-8.705,0-15.987,0.919-22.263,2.812c-3.938,1.178-7.368,2.729-10.201,4.61
	c-2.889,1.917-5.24,4.291-6.985,7.058c-1.61,2.628-2.677,5.742-3.165,9.24c-0.198,1.478-0.269,3.113-0.227,5.295
	c0.034,1.712,0.208,3.525,0.533,5.541c0.229,1.441,0.528,2.929,0.91,4.51l0.104-0.076l0.468,2.286
	c0.354,1.289,0.762,2.636,1.201,3.953c1.79,5.152,6.464,16.501,17.59,34.437C292.767,274.402,297.885,281.542,303.466,288.687z
	 M341.886,302.479c0.261-6.866,0.7-14.079,1.41-23.039c-0.438,0.394-0.877,0.789-1.311,1.186
	c-9.52,8.698-17.702,16.685-24.977,24.376c1.152,1.302,2.313,2.595,3.485,3.879c6.344,6.964,12.438,13.156,18.633,18.933
	c0.804,0.752,1.609,1.498,2.421,2.239c-0.003-0.13-0.003-0.262-0.005-0.393C341.407,321.009,341.524,311.863,341.886,302.479z
	 M289.614,338.489c2.263,3.394,3.589,7.468,3.589,11.855c0,11.696-9.392,21.185-21.041,21.374c-1.342,3.98-2.26,7.684-2.752,11.15
	c-0.546,3.819-0.59,7.316-0.13,10.393c0.474,3.097,1.527,5.938,3.132,8.44c1.581,2.397,3.784,4.49,6.53,6.205
	c2.856,1.72,6.112,3.062,9.66,3.98c6.494,1.724,14.159,2.366,23.748,1.983c4.159-0.169,8.388-0.524,12.57-1.055
	c3.778-0.439,7.815-1.056,12.713-1.938c4.364-0.804,8.848-1.741,13.345-2.79c-3.974-16.756-6.702-33.971-8.112-51.186
	c-0.377-4.507-0.687-9.087-0.918-13.613c-0.08-1.685-0.14-3.364-0.194-5.043l-0.433-0.325c-2.189-1.649-4.38-3.298-6.554-4.979
	c-3.407-2.646-7.033-5.474-10.614-8.408c-3.797-3.061-7.21-5.905-10.427-8.696c-1.235-1.069-2.466-2.149-3.69-3.236
	c-1.803,2.021-3.329,3.772-4.744,5.444C299.567,324.789,294.296,331.668,289.614,338.489z"/>
</svg>
