<svg width="512" height="512" viewBox="0 0 512 512" fill="none" xmlns="http://www.w3.org/2000/svg">
<g clip-path="url(#clip0_352_5057)">
<path d="M240.064 60.3229C240.064 58.3246 240.458 56.3458 241.223 54.4997C241.988 52.6535 243.109 50.976 244.522 49.563C245.935 48.15 247.613 47.0291 249.459 46.2643C251.306 45.4997 253.285 45.106 255.284 45.106C257.283 45.106 259.262 45.4997 261.109 46.2643C262.955 47.0291 264.633 48.15 266.046 49.563C267.459 50.976 268.58 52.6535 269.345 54.4997C270.11 56.3458 270.504 58.3246 270.504 60.3229C270.504 64.3586 268.901 68.2291 266.046 71.0828C263.192 73.9365 259.32 75.5397 255.284 75.5397C251.248 75.5397 247.376 73.9365 244.522 71.0828C241.668 68.2291 240.064 64.3586 240.064 60.3229ZM58.479 198.091C58.479 196.092 58.8727 194.114 59.6376 192.267C60.4024 190.421 61.5235 188.744 62.9369 187.33C64.3502 185.917 66.028 184.796 67.8746 184.032C69.7212 183.267 71.7004 182.874 73.6992 182.874C75.6979 182.874 77.677 183.267 79.5236 184.032C81.3699 184.796 83.048 185.917 84.4612 187.33C85.8744 188.744 86.9955 190.421 87.7605 192.267C88.5255 194.114 88.9192 196.092 88.9192 198.091C88.9192 202.126 87.3155 205.997 84.4612 208.85C81.6068 211.704 77.7358 213.308 73.6992 213.308C69.6625 213.308 65.7912 211.704 62.9369 208.85C60.0825 205.997 58.479 202.126 58.479 198.091ZM421.649 198.795C421.649 194.758 423.253 190.888 426.107 188.034C428.961 185.18 432.833 183.578 436.869 183.578C440.905 183.578 444.777 185.18 447.631 188.034C450.486 190.888 452.089 194.758 452.089 198.795C452.089 202.83 450.486 206.701 447.631 209.555C444.777 212.408 440.905 214.012 436.869 214.012C432.833 214.012 428.961 212.408 426.107 209.555C423.253 206.701 421.649 202.83 421.649 198.795ZM102.523 219.692C105.886 218.19 108.517 215.417 109.84 211.98C111.163 208.543 111.069 204.723 109.581 201.355L102.827 186.09H129.394V305.777H75.7957C69.1823 282.549 67.1227 258.262 69.7301 234.253L102.523 219.692ZM213.625 222.636V187.354H276.874C280.139 187.354 299.92 191.13 299.92 205.915C299.92 218.204 284.716 222.62 272.233 222.62L213.625 222.636ZM127.266 412.582C127.266 410.584 127.659 408.605 128.424 406.759C129.189 404.912 130.31 403.235 131.724 401.822C133.137 400.409 134.815 399.288 136.661 398.523C138.508 397.759 140.487 397.365 142.486 397.365C144.485 397.365 146.464 397.759 148.31 398.523C150.156 399.288 151.835 400.409 153.248 401.822C154.661 403.235 155.782 404.912 156.547 406.759C157.312 408.605 157.706 410.584 157.706 412.582C157.706 416.618 156.102 420.488 153.248 423.342C150.393 426.196 146.522 427.799 142.486 427.799C138.449 427.799 134.578 426.196 131.724 423.342C128.869 420.488 127.266 416.618 127.266 412.582ZM352.814 413.286C352.814 409.25 354.418 405.379 357.272 402.526C360.127 399.672 363.998 398.069 368.034 398.069C372.071 398.069 375.942 399.672 378.797 402.526C381.651 405.379 383.255 409.25 383.255 413.286C383.255 417.322 381.651 421.192 378.797 424.046C375.942 426.9 372.071 428.503 368.034 428.503C363.998 428.503 360.127 426.9 357.272 424.046C354.418 421.192 352.814 417.322 352.814 413.286ZM357.52 378.772C349.998 377.172 342.636 381.941 341.035 389.445L333.401 425.095C308.831 436.22 282.15 441.913 255.178 441.783C228.206 441.653 201.58 435.704 177.119 424.343L169.485 388.693C167.884 381.173 160.522 376.404 153 378.02L121.52 384.773C115.671 378.749 110.233 372.34 105.244 365.588H258.405C260.133 365.588 261.286 365.268 261.286 363.7V309.537C261.286 307.937 260.133 307.649 258.405 307.649H213.593V273.311H262.038C266.455 273.311 285.676 274.591 291.838 299.136L300.88 339.138C303.761 347.939 315.492 365.588 327.976 365.588H407.037C401.731 372.683 395.928 379.393 389.672 385.669L357.52 378.772ZM442.567 235.757C443.643 246.568 443.777 257.452 442.967 268.286H423.761C421.841 268.286 421.041 269.567 421.041 271.439V280.271C421.041 301.072 409.326 305.553 399.051 306.721C389.288 307.841 378.405 302.624 377.093 296.64C371.331 264.19 361.729 257.278 346.685 245.277C365.522 233.309 385.127 215.676 385.127 192.042C385.127 166.537 367.634 150.472 355.711 142.6C338.987 131.559 320.47 129.367 315.476 129.367H116.463C143.952 98.6573 180.803 77.8654 221.307 70.2114L244.753 94.8051C250.035 100.357 258.837 100.565 264.374 95.2531L290.622 70.1794C317.358 75.1845 342.684 85.9478 364.84 101.723C386.997 117.498 405.453 137.905 418.928 161.529L400.971 202.075C399.483 205.443 399.389 209.263 400.712 212.7C402.036 216.137 404.666 218.91 408.029 220.412L442.567 235.757ZM487.347 236.397L486.738 230.124L505.239 212.875C509 209.355 507.592 202.315 502.791 200.523L479.152 191.69L477.296 185.61L492.02 165.129C495.029 160.969 492.26 154.328 487.219 153.496L462.284 149.448L459.291 143.848L469.774 120.855C471.918 116.166 467.933 110.182 462.78 110.374L437.493 111.254L433.492 106.406L439.302 81.7644C440.47 76.7558 435.397 71.6835 430.387 72.8515L405.741 78.6599L400.875 74.6596L401.756 49.3783C401.948 44.258 395.962 40.2578 391.289 42.3859L368.307 52.8665L362.705 49.8583L358.64 24.9289C357.84 19.8727 351.166 17.1205 347.005 20.1287L326.519 34.8495L320.438 33.0094L311.603 9.37611C309.811 4.57587 302.753 3.1678 299.248 6.912L281.995 25.409L275.722 24.8009L262.406 3.2798C259.717 -1.07243 252.483 -1.07243 249.811 3.2798L236.495 24.8009L230.221 25.409L212.937 6.88C209.416 3.13579 202.374 4.52787 200.581 9.3441L191.747 32.9774L185.665 34.8175L165.18 20.0967C161.019 17.0885 154.361 19.8567 153.545 24.8969L149.479 49.8263L143.878 52.8345L120.896 42.3539C116.223 40.2258 110.221 44.226 110.429 49.3463L111.309 74.6276L106.444 78.6278L81.7972 72.8195C76.788 71.6515 71.7146 76.7237 72.8829 81.7324L78.6925 106.374L74.6914 111.222L49.4046 110.342C44.2832 110.182 40.2821 116.134 42.4107 120.823L52.8935 143.816L49.8847 149.416L24.95 153.464C19.8926 154.264 17.1399 160.937 20.1487 165.097L34.8727 185.578L33.0162 191.658L9.3778 200.491C4.57648 202.283 3.1681 209.339 6.92911 212.843L25.4301 230.092L24.822 236.365L3.29613 249.677C-1.05704 252.366 -1.05704 259.598 3.29613 262.27L24.822 275.583L25.4301 281.855L6.8811 299.168C3.13609 302.688 4.52846 309.729 9.32979 311.521L32.9682 320.353L34.8247 326.434L20.1007 346.915C17.1079 351.075 19.8606 357.731 24.902 358.547L49.8207 362.596L52.8295 368.196L42.3467 391.173C40.2181 395.845 44.2352 401.846 49.3406 401.654L74.6274 400.774L78.6285 405.638L72.8189 430.279C71.6506 435.272 76.724 440.36 81.7332 439.176L106.38 433.367L111.245 437.368L110.365 462.649C110.173 467.769 116.159 471.769 120.832 469.641L143.814 459.161L149.415 462.169L153.481 487.082C154.281 492.155 160.955 494.891 165.116 491.915L185.601 477.162L191.683 479.018L200.517 502.651C202.31 507.451 209.368 508.859 212.873 505.099L230.125 486.602L236.399 487.242L249.715 508.763C252.403 513.084 259.605 513.116 262.31 508.763L275.626 487.242L281.899 486.602L299.152 505.099C302.673 508.859 309.715 507.451 311.507 502.651L320.342 479.018L326.423 477.162L346.909 491.915C351.07 494.907 357.728 492.155 358.544 487.082L362.609 462.169L368.21 459.161L391.193 469.641C395.866 471.769 401.852 467.785 401.66 462.649L400.779 437.368L405.629 433.367L430.275 439.176C435.285 440.344 440.358 435.272 439.19 430.279L433.38 405.638L437.381 400.774L462.668 401.654C467.789 401.862 471.79 395.845 469.662 391.173L459.179 368.196L462.172 362.596L487.107 358.547C492.18 357.747 494.949 351.091 491.908 346.915L477.184 326.434L479.04 320.353L502.679 311.521C507.48 309.713 508.888 302.672 505.127 299.168L486.626 281.919L487.235 275.647L508.76 262.334C513.114 259.646 513.13 252.446 508.76 249.741L487.347 236.397Z" fill="black"/>
</g>
<defs>
<clipPath id="clip0_352_5057">
<rect width="512" height="512" fill="white"/>
</clipPath>
</defs>
</svg>
