
<svg width="1391" height="698" viewBox="0 0 1391 698" fill="none" xmlns="http://www.w3.org/2000/svg">
<path fill-rule="evenodd" clip-rule="evenodd" d="M1316.24 0C1317.73 1.84483 1319.21 3.7516 1320.68 5.72327C1329.11 17.1079 1341.27 26.4492 1354.28 33.9743L1328.41 57.9031C1316.06 40.7815 1296.14 17.8345 1275.3 0H1316.24ZM1250.32 0H1214.13C1232.94 36.0795 1229.58 59.417 1217.68 81.612C1217.68 81.612 1225.18 34.3495 1187.86 15.2859C1180.91 11.7347 1173.85 6.41061 1166.67 0H1139.78C1142.81 4.36998 1145.17 8.52895 1146.66 12.3659C1157.9 41.4523 1153.49 75.9738 1149.4 108.031C1148.65 113.86 1147.92 119.608 1147.29 125.227C1148.64 109.469 1150.29 66.5108 1131.62 41.5672C1125.75 33.7318 1120.59 23.2509 1114.82 11.5225C1112.98 7.79285 1111.08 3.93703 1109.08 0H1062.39C1100.64 34.1549 1122.55 70.5591 1119.42 109.56C1115.61 157.123 1147.23 195 1163.11 210.828L1180.82 194.44C1175.86 184.234 1173.08 172.919 1172.28 159.618C1169.01 105.556 1185.15 27.384 1185.15 27.384C1185.15 27.384 1172.96 94.5636 1229.06 149.815L1263.06 118.356C1247.15 84.8277 1254.27 59.9174 1254.27 59.9174C1258.14 72.845 1266.83 88.5872 1277.77 104.754L1301.76 82.5599C1295.25 73.7702 1290.38 65.9769 1287.81 59.9835C1280.45 42.8096 1263.87 18.5224 1250.32 0ZM1212.87 164.79C1205.66 155.221 1200.15 145.544 1196.67 135.84C1196.67 135.84 1195.65 151.787 1202.89 174.023L1212.87 164.79ZM1161.43 212.376C1130.9 191.387 1071.6 136.314 1065.89 73.2688C1063.49 46.7496 1050.25 21.3949 1034.55 0H990.576C1007.57 19.443 1021.38 39.9827 1026.59 59.2962C1044.62 126.104 1067.57 164.386 1097.06 187.566C1100.37 190.166 1103.98 192.945 1107.78 195.874C1119.64 205.007 1133.4 215.603 1145.86 226.782L1161.43 212.376ZM1133.64 238.086C1128.07 235.22 1121.98 232.519 1115.36 230.114C1068.23 213.008 1028.21 168.36 1022.53 130.835C1018.57 104.708 998.595 71.9724 983.518 47.2583C976.94 36.4773 971.294 27.2228 968.315 20.7091C965.837 15.2898 961.523 8.21161 955.38 0H922.613C936.72 16.305 962.62 49.2578 967.638 76.6054C974.607 114.584 1014.39 156.697 1014.39 156.697C933.664 108.501 934.111 102.622 935.857 79.6211C936.144 75.832 936.467 71.5781 936.468 66.5939C936.473 42.0633 925.307 14.492 918.52 0H896.503C897.976 5.11258 899.12 10.4831 899.875 16.1208C902.505 35.7543 903.12 52.0031 903.644 65.8454C905.211 107.271 905.963 127.145 957.475 151.692C1026.2 184.44 1066.57 222.188 1066.57 222.188C1066.57 222.188 895.649 171.895 897.842 119.572C899.786 73.2355 881.58 32.7042 857.824 0H835.182C849.001 17.6558 858.543 35.845 858.542 52.4107C858.541 75.5452 854.468 92.4067 851.225 105.836C846.05 127.262 842.985 139.952 861.929 155.445C874.011 165.326 889.184 175.615 905.018 186.353C929.574 203.006 955.724 220.739 974.415 239.708C995.304 260.908 1026.32 287.662 1055.73 310.168L1072.37 294.771C1057.01 282.399 1039.11 269.448 1013.72 254.307C1013.72 254.307 1047.75 264.126 1086.65 281.562L1095.03 273.807C1091.29 272.147 1087.53 270.513 1083.76 268.907C1016.5 240.313 893.981 173.305 882.935 143.348C882.935 143.348 939.101 186.641 1013.72 216.348C1029.9 222.794 1045.19 228.062 1060.05 233.186C1079.07 239.742 1097.41 246.064 1116.1 254.319L1133.64 238.086ZM1043.6 321.385C1021.95 305.546 1002.03 294.101 983.399 283.401C955.64 267.456 930.756 253.164 907.331 228.443C895.775 216.247 884.978 205.795 875.218 196.348C842.397 164.577 821.319 144.174 822.628 107.055C823.504 82.1887 809.368 39.8485 787.473 0H771.155C789.716 35.8237 792.232 71.8634 793.986 96.983C794.455 103.695 794.869 109.627 795.52 114.567C800.83 154.851 855.385 237.001 870.059 249.302C876.749 254.91 896.486 273.923 918.554 295.182C944.897 320.56 974.562 349.137 989.319 361.93C991.087 363.462 992.908 365.003 994.775 366.554L1005.95 356.216C1003.57 353.561 1001.62 351.138 1000.16 348.999C983.112 323.875 924.271 272.246 924.271 272.246C936.566 277.761 986.876 308.752 1004.91 323.97C1008.93 327.369 1013.15 331.343 1017.82 335.747C1019.45 337.291 1021.14 338.888 1022.9 340.531L1043.6 321.385ZM976.274 383.67C959.732 359.416 926.629 322.501 860.573 290.597C848.523 284.778 834.714 278.73 819.891 272.238C736.596 235.76 621.255 185.247 605.787 82.2347C600.929 49.8792 591.772 22.6039 580.955 0H524.422C546.077 39.5959 560.806 82.6762 572.586 119.155C594.647 187.466 605.759 197.532 681.685 245.549C715.687 267.053 763.001 287.878 806.221 306.901C859.507 330.354 906.569 351.068 914.782 366.937C920.537 378.052 936.236 389.873 955.208 403.158L976.274 383.67ZM934.451 422.361C926.589 414.382 921.256 407.618 919.526 402.81C913.847 387.033 897.926 377.762 880.413 367.565C867.396 359.986 853.5 351.894 842.276 340.239C823.11 320.335 739.497 288.117 677.688 264.301C654.604 255.406 634.562 247.683 622.052 242.211C576.043 222.086 474.088 177.333 462.808 140.012C452.833 106.995 417.874 41.2276 362.274 0H312.608C359.706 30.204 368.055 59.0622 380.849 103.286C383.466 112.334 386.27 122.026 389.63 132.503C412.712 204.479 456.711 225.524 456.711 225.524C414.546 215.943 391.755 183.542 375.998 161.14C375.334 160.197 374.683 159.271 374.043 158.365C373.469 157.551 372.878 156.71 372.268 155.841C356.088 132.78 326.654 90.8311 235.133 61.5888C161.951 38.2063 135.038 23.5874 111.135 0H65.6618C87.0599 20.8441 109.51 38.8659 128.07 52.8289C144.155 64.9314 171.658 75.53 201.068 86.8635C248.015 104.955 299.821 124.919 317.8 155.863C347.042 206.192 370.556 232.285 476.361 275.999C582.17 319.713 607.48 389.878 607.48 389.878C563.809 342.204 448.905 276.031 346.937 225.526C299.88 202.218 276.061 177.496 252.261 152.795C224.489 123.97 196.743 95.1726 132.131 68.682C69.3091 42.923 36.0495 17.9489 18.6178 0H0V9.44591C0 9.44591 17.7868 41.4058 76.5701 72.4353C106.455 88.209 124.864 112.085 143.578 136.357C161.677 159.83 180.06 183.673 209.383 200.914C236.534 216.877 277.088 229.848 315.868 242.252C362.289 257.099 406.169 271.134 421.482 288.514C436.286 305.32 499.43 350.049 558.599 391.962C611.742 429.606 661.677 464.978 670.505 475.809C670.505 475.809 597.614 435.56 468.915 407.816C340.208 380.073 231.194 346.712 191.087 307.285C171.429 287.961 133.493 265.329 95.8226 242.856C56.6339 219.477 17.7332 196.269 0 177.136V212.594C19.6502 239.522 94.8665 280.587 94.8665 280.587C43.4768 267.594 0 240.124 0 240.124V323.135C8.38258 329.847 36.7919 340.061 72.0091 352.722C140.502 377.346 234.747 411.229 257.493 446.611C291.941 500.182 351.004 542.969 351.004 542.969C277.725 524.738 273.53 514.384 266.38 496.737C264.39 491.825 262.171 486.348 258.17 479.979C254.466 474.082 252.186 469.002 250.111 464.376C241.895 446.063 236.873 434.87 159.24 408.233C61.9904 374.865 0 370.272 0 370.272V397.385C0 397.385 21.6659 414.971 92.8333 427.42C164.001 439.868 185.627 451.152 209.381 475.808C209.381 475.808 154.746 452.019 99.6099 447.025C44.4734 442.033 18.8059 437.786 0 429.09V454.536C0 454.536 31.9394 467.537 70.4705 469.134C109.007 470.732 210.685 498.317 250.717 525.866C290.754 553.417 423.51 588.02 423.51 588.02C393.893 570.84 366.065 536.266 334.987 497.653C319.638 478.584 303.497 458.53 285.956 439.1C216.267 361.909 131.389 338.553 76.5701 327.724C21.7509 316.894 0.00251549 302.277 0.00251549 302.277V272.244C0.00251549 272.244 16.1608 289.258 104.695 306.032C193.225 322.805 254.436 365.004 320.515 436.598C331.273 448.254 341.749 460.493 352.338 472.866C406.792 536.491 464.262 603.639 578.686 613.048C636.987 617.842 676.289 624.482 707.488 632.328L728.932 612.49C702.617 606.552 675.6 601.543 649.733 596.747C601.601 587.824 557.451 579.639 529.222 567.579C457.999 537.153 362.523 439.098 362.523 439.098C362.523 439.098 395.365 470.632 508.895 533.789C581.321 574.083 674.612 587.724 746.969 595.804L771.64 572.98C751.527 569.958 733.739 567.873 716.376 565.839C682.581 561.879 650.394 558.107 605.789 547.975C526.631 529.993 410.634 457.456 410.634 457.456C490.484 506.2 694.625 554.392 773.019 571.704L788.763 557.139C784.355 556.19 779.821 555.217 775.166 554.219C715.682 541.461 636.394 524.455 546.839 497.084C391.106 449.486 325.936 397.387 325.936 397.387C366.307 425.074 443.921 443.96 523.343 463.285C599.236 481.752 676.779 500.62 725.052 527.954C745.589 539.582 769.69 546.796 795.154 551.227L816.053 531.892C739.074 513.284 693.202 480.814 693.202 480.814C744.894 488.412 792.665 503.951 827.514 517.592C828.458 517.961 829.393 518.329 830.318 518.696L844.418 505.652C836.189 501.7 827.656 497.113 818.56 491.662C792.558 476.08 776.703 473.482 758.508 470.501C740.308 467.519 719.767 464.154 684.39 447.026C613.647 412.778 617.984 349 617.984 349C659.852 404.607 740.463 450.621 827.369 477.897C839.448 481.688 850.878 485.682 861.608 489.749L883.975 469.057C874.532 464.389 864.313 459.102 853.799 453.283C837.874 444.47 815.873 437.72 792.446 430.533C752.406 418.249 708.201 404.686 683.041 377.362C643.154 334.051 607.965 309.653 562.425 293.517C516.885 277.381 499.405 254.306 499.405 254.306C514.759 264.066 575.842 286.767 627.125 305.826C650.054 314.347 671.024 322.141 685.072 327.724C703.663 335.112 719.727 346.681 736.813 358.985C761.514 376.773 788.351 396.099 828.049 406.562C859.204 414.773 884.493 433.768 902.655 451.776L915.841 439.577C912.292 435.389 910.044 432.844 910.044 432.844C910.044 432.844 912.786 434.811 917.269 438.256L934.451 422.361ZM694.367 644.466C678.631 639.663 661.991 635.507 644.413 632.235C610.087 625.845 581.174 624.235 551.712 622.593C510.361 620.29 467.928 617.926 407.926 602.203C305.174 575.276 191.934 538.328 128.07 510.014C64.201 481.7 0 482.066 0 482.066V507.931C0 507.931 41.0139 509.831 79.9596 524.406C110.303 535.762 207.667 564.608 276.477 584.993C295.984 590.773 313.196 595.872 325.936 599.7C372.988 613.84 466.376 633.026 541.127 648.383C558.01 651.851 573.942 655.124 588.175 658.1C616.795 664.084 639.983 669.106 661.847 674.551L694.367 644.466ZM654.741 681.125C643.703 677.023 633.95 673.719 626.119 671.449C604.088 665.063 571.598 662.019 535.729 658.658C485.092 653.913 427.719 648.538 383.53 632.237C377.992 630.194 372.602 628.192 367.328 626.233C300.7 601.49 252.656 583.648 161.947 578.01C64.0636 571.923 0 559.237 0 559.237V588.022C23.1564 600.15 106.688 599.863 147.767 599.722C153.042 599.704 157.616 599.688 161.273 599.702C193.407 599.818 230.207 610.405 277.144 630.155C324.08 649.904 407.449 669.018 574.622 686.051C597.544 688.386 618.715 691.979 638.185 696.441L654.741 681.125ZM497.268 698C478.979 696.709 466.2 696.059 466.2 696.059C467.499 696.612 468.839 697.263 470.229 698H497.268ZM427.319 698C411.9 687.152 395.129 677.308 375.402 671.866C364.463 668.848 348.696 664.697 330.6 659.933C273.866 644.996 194.239 624.032 168.724 613.048C135.076 598.561 44.0438 613.048 44.0438 613.048C44.0438 613.048 74.9391 627.536 114.519 643.918C138.513 653.848 192.629 662.951 247.568 672.192C283.246 678.194 319.271 684.253 347.619 690.636C355.442 692.398 363.356 694.914 371.251 698H427.319ZM307.474 698C284.957 691.093 262.432 686.352 241.912 684.381C167.188 677.2 104.236 658.197 58.9531 635.576C13.6705 612.953 0 613.05 0 613.05V645.167C44.6313 667.289 128.821 682.813 206.621 697.158C208.145 697.439 209.668 697.72 211.187 698H307.474ZM51.4141 698C19.9034 688.026 0 678.538 0 678.538V698H51.4141ZM0 548.81C22.1105 553.246 122.647 552.147 122.647 552.147C62.6074 532.287 0 524.406 0 524.406V548.81ZM0 140.845C0 140.845 51.4572 211.53 104.693 235.954C157.924 260.38 238.343 302.902 271.046 324.389C303.75 345.876 517.362 397.387 517.362 397.387C517.362 397.387 495.322 349.168 382.179 318.132C269.031 287.096 216.29 243.503 183.633 207.589C177.342 200.67 170.709 192.975 163.765 184.918C134.666 151.157 100.102 111.057 62.3376 95.1694C15.5663 75.4891 0 48.6573 0 48.6573V79.5254C3.98435 82.416 8.60978 85.7282 13.7009 89.3739C53.6662 117.993 122.328 167.161 134.846 194.24C148.956 224.768 241.233 279.336 241.233 279.336C201.068 264.765 108.25 210.688 83.3442 183.81C58.4436 156.932 0 117.902 0 117.902V140.845ZM145.005 0C162.68 11.4602 184.712 21.2239 205.994 27.3825C280.343 48.8971 351.681 74.9371 351.681 74.9371C335.384 41.3089 301.412 23.6202 262.627 3.42552C260.451 2.29266 258.26 1.15189 256.056 0H224.977C225.683 0.299744 226.39 0.599243 227.096 0.898651C249.33 10.3267 271.36 19.668 290.015 34.0574C290.015 34.0574 269.99 19.9249 222.931 11.5325C221.059 11.1986 219.207 10.8706 217.377 10.5464C199.363 7.35575 183.408 4.5299 170.338 0H145.005ZM413.822 0C448.607 31.3927 457.547 61.7081 466.742 92.8923C469.82 103.332 472.927 113.869 477.043 124.577C496.436 175.038 602.405 213.844 602.405 213.844C497.762 155.087 498.214 110.289 498.725 59.7247C498.855 46.7897 498.99 33.4774 497.37 19.4575C496.588 12.6857 495.291 6.19656 493.587 0H465.197C468.78 8.09213 471.313 16.1951 472.299 24.0473C472.299 24.0473 465.82 13.5864 454.583 0H413.822ZM628.451 0C657.229 43.6507 674.525 95.2771 680.329 137.092C691.891 220.392 819.239 249.302 819.239 249.302C790.117 227.262 770.729 133.68 758.93 48.6573C756.476 30.9769 751.146 14.6971 744.241 0H720.34C740.634 39.0198 737.189 76.7827 734.844 102.49C734.443 106.886 734.074 110.93 733.862 114.567C731.426 156.164 773.839 207.588 773.839 207.588C716.266 163.628 701.215 90.4347 688.169 26.9942C686.268 17.7488 684.41 8.71048 682.468 0H628.451ZM1146.66 131.25C1146.66 131.252 1146.97 129.031 1147.29 125.227C1147.06 127.249 1146.85 129.259 1146.66 131.25ZM759.984 340.213C789.244 359.79 812.627 375.436 864.639 389.878C864.639 389.878 800.023 334.943 741.989 312.707C683.958 290.473 454.033 197.055 446.549 150.44C446.549 150.44 428.653 183.012 498.726 225.526C536.855 248.659 587.451 265.924 633.413 281.608C671.919 294.747 707.172 306.777 729.116 320.217C740.745 327.34 750.663 333.976 759.984 340.213Z" fill="black"/>
</svg>
