<svg width="800" height="800" viewBox="0 0 800 800" fill="none" xmlns="http://www.w3.org/2000/svg">
<path fill-rule="evenodd" clip-rule="evenodd" d="M400 733.333C584.093 733.333 733.333 584.093 733.333 400C733.333 215.905 584.093 66.6667 400 66.6667C215.905 66.6667 66.6667 215.905 66.6667 400C66.6667 584.093 215.905 733.333 400 733.333ZM425 300C425 286.193 413.807 275 400 275C386.193 275 375 286.193 375 300V375H300C286.193 375 275 386.193 275 400C275 413.807 286.193 425 300 425H375V500C375 513.807 386.193 525 400 525C413.807 525 425 513.807 425 500V425H500C513.807 425 525 413.807 525 400C525 386.193 513.807 375 500 375H425V300Z" fill="white"/>
</svg>
