<svg width="343" height="408" viewBox="0 0 343 408" fill="none" xmlns="http://www.w3.org/2000/svg">
<path d="M127.277 209.386C127.277 185.374 146.75 165.911 170.758 165.911C194.704 165.911 214.234 185.435 214.234 209.386C214.234 233.331 194.705 252.865 170.758 252.865C146.75 252.864 127.277 233.399 127.277 209.386ZM0.688068 286.956C1.57007 281.268 3.09906 275.628 5.37906 269.715C2.89606 266.22 1.42107 261.959 1.42107 257.345C1.42107 245.53 10.9971 235.953 22.8111 235.953C23.3101 235.953 23.8011 235.995 24.2901 236.028C29.5931 228.651 35.7161 221.146 42.8501 213.257C44.4341 211.515 46.1321 209.695 48.1401 207.591C47.0011 206.476 45.8681 205.351 44.7481 204.214C38.0411 197.394 31.9291 190.401 26.5791 183.427C25.6941 182.274 24.8421 181.09 23.9881 179.907L22.7241 178.153L22.7521 178.143C18.0361 171.426 10.5301 159.782 6.48606 148.514C4.31406 142.764 2.87607 137.316 2.09507 131.88C1.29907 126.303 1.32107 120.956 2.16207 115.985C2.66207 113.111 3.41906 110.387 4.41506 107.883C5.48606 105.209 6.85707 102.673 8.48807 100.342C11.5641 95.9501 15.8841 92.1081 20.9851 89.2311C23.1741 88.0111 25.5511 86.9531 28.2591 85.9941C30.5321 85.1791 32.9531 84.5181 35.6541 83.9801C40.5821 83.0021 45.6671 82.5261 51.1961 82.5261C55.2741 82.5261 59.5921 82.7891 64.3931 83.3271C73.1861 84.3781 82.0531 86.1461 91.5011 88.7371C97.4101 90.3371 103.346 92.1501 109.605 94.2651C111.314 87.9771 113.164 81.8901 115.109 76.1501C118.212 66.9001 121.683 58.5541 125.723 50.6421C130.885 40.7231 136.15 33.2571 142.292 27.1381C144.123 25.3091 145.934 23.7391 147.809 22.3341C147.809 22.3181 147.806 22.3001 147.806 22.2841C147.806 10.4691 157.383 0.89209 169.199 0.89209C179.724 0.89209 188.453 8.50009 190.237 18.5131C193.876 20.4581 197.408 22.9521 200.765 25.9771C207.411 31.9671 213.101 39.3621 218.675 49.2501C220.706 52.8681 222.691 56.9101 224.914 61.9681C226.859 66.5481 228.49 70.8191 229.91 75.0411C231.871 80.8581 233.642 87.0221 235.18 93.3841C240.623 91.5911 245.677 90.0651 250.59 88.7341C257.157 86.9361 263.836 85.4801 270.458 84.4031L270.455 84.3871L271.831 84.1581C272.522 84.0571 273.193 83.9691 273.867 83.8801L274.968 83.7181C275.386 83.6531 275.805 83.5881 276.227 83.5331L277.517 83.3681L277.527 83.4411C282.019 82.9611 286.376 82.7191 290.495 82.7191C308.121 82.7191 317.347 87.1551 319.755 88.5131C320.171 88.7211 320.64 88.9661 321.103 89.2241C326.211 92.1071 330.534 95.9501 333.608 100.339C335.233 102.661 336.601 105.197 337.675 107.877C338.671 110.376 339.431 113.1 339.933 115.976C340.773 120.95 340.796 126.297 339.999 131.875C338.731 140.721 335.764 149.567 330.663 159.719C328.807 163.397 326.558 167.296 323.586 171.989C320.863 176.155 318.226 179.89 315.511 183.425C310.182 190.381 304.07 197.375 297.346 204.21C296.226 205.349 295.094 206.473 293.955 207.59C295.955 209.687 297.653 211.506 299.239 213.252C313.752 229.291 324.098 243.753 331.802 258.766C336.948 268.924 340.002 277.88 341.409 286.955C341.85 289.78 342.073 292.399 342.088 294.961C342.119 297.98 341.935 300.711 341.525 303.307C340.572 309.395 338.375 315.083 335.172 319.752C331.957 324.478 327.494 328.611 322.27 331.705C317.8 334.332 312.696 336.313 307.093 337.595C304.715 338.139 302.284 338.539 299.809 338.861C296.618 346.658 288.963 352.155 280.016 352.155C270.06 352.155 261.719 345.344 259.331 336.137C256.036 335.399 252.837 334.6 249.786 333.74C245.055 332.424 240.087 330.813 234.641 328.835C233.249 334.455 231.813 339.478 230.268 344.146C228.882 348.376 227.241 352.795 225.392 357.276C224.013 360.497 222.69 363.375 221.342 366.077L221.248 366.284C212.202 385.593 200.899 394.947 196.459 398.073C193.68 400.168 190.956 401.848 188.176 403.186C182.701 405.797 176.781 407.198 171.052 407.237L170.73 407.238C165.174 407.238 159.34 405.889 153.858 403.34C151.47 402.231 149.104 400.861 146.617 399.15C144.513 397.722 142.462 396.076 140.352 394.126C133.605 387.898 127.87 380.373 122.309 370.442C115.698 358.491 110.273 345.072 105.74 329.454C100.946 331.156 96.5351 332.563 92.3021 333.744C88.0051 334.954 83.4221 336.054 78.6831 337.011C73.2611 338.044 68.789 338.702 64.597 339.084C60.725 339.434 57.1771 339.605 53.7491 339.605C47.0411 339.605 40.9081 338.948 34.9991 337.598C29.3991 336.317 24.2941 334.337 19.8251 331.711C14.5971 328.614 10.1351 324.481 6.91806 319.752C3.72106 315.093 1.52306 309.405 0.562061 303.308C0.156061 300.71 -0.0259365 297.98 0.00206347 294.96C0.0250635 292.391 0.246068 289.771 0.688068 286.956ZM107.75 250.12C115.55 256.425 123.659 262.401 131.862 267.884C144.456 276.295 157.636 283.879 171.05 290.431C184.452 283.885 197.636 276.302 210.239 267.884C220.248 261.195 230.011 253.855 239.267 246.066C240.612 233.99 241.309 221.698 241.342 209.527C241.361 199.659 240.921 189.596 240.034 179.611L239.22 178.905C235.888 176.004 232.494 173.136 229.121 170.371C222.608 165.017 215.562 159.553 208.182 154.131C202.262 149.841 194.42 144.254 186.306 139.128C181.195 135.857 176.069 132.742 171.049 129.862C166.009 132.755 160.882 135.869 155.803 139.124C147.756 144.206 140.221 149.564 133.908 154.137C126.524 159.564 119.481 165.028 112.981 170.371C110.175 172.67 107.314 175.079 104.248 177.725C104.188 179.464 104.134 181.204 104.098 182.944C103.827 192.555 104.092 202.176 104.353 209.485C104.756 218.859 105.349 227.506 106.166 235.909C106.572 240.143 107.061 244.563 107.617 249.049L107.75 250.12ZM139.189 303.942C148.016 300.723 156.055 297.433 163.769 293.881C163.933 293.806 164.1 293.729 164.263 293.652C152.809 286.741 141.116 279.274 129.477 271.435C122.411 266.655 115.401 261.778 108.611 256.912C108.842 258.652 109.087 260.391 109.344 262.127C112.171 280.981 115.297 296.406 119.154 310.524C126.169 308.46 132.903 306.248 139.189 303.942ZM221.015 323.485C207.098 317.576 192.473 310.123 175.116 300.097C174.125 299.523 173.141 298.938 172.161 298.351L171.051 297.692L169.941 298.352C168.961 298.938 167.98 299.524 166.989 300.097C150.304 309.73 136.22 316.949 122.787 322.751C124.53 328.168 126.314 333.151 128.225 337.952C131.682 346.659 135.269 354.106 139.199 360.725C144.081 368.848 148.847 374.951 153.768 379.374C156.64 381.959 159.516 383.945 162.323 385.278C165.161 386.608 168.107 387.317 171.078 387.382H171.224C174.053 387.382 176.966 386.722 179.874 385.419C180.581 385.088 181.346 384.687 182.196 384.197C187.065 381.079 194.881 374.267 204.21 359.697L204.288 359.568C206.267 356.261 208 353.128 209.578 349.987C211.297 346.65 213.037 342.956 215.058 338.349C217.15 333.521 219.152 328.524 221.015 323.485ZM237.016 262.603C237.502 259.631 237.959 256.536 238.384 253.361C229.954 259.494 221.301 265.566 212.622 271.434C200.98 279.276 189.289 286.743 177.835 293.654C177.999 293.73 178.166 293.807 178.33 293.883C186.033 297.431 194.075 300.721 202.91 303.944C209.935 306.518 217.441 308.959 225.244 311.198C227.74 303.447 229.899 295.858 231.668 288.616C233.889 279.619 235.688 270.868 237.016 262.603ZM285.811 225.046C284.396 223.373 282.869 221.622 281.067 219.601C279.841 220.688 278.612 221.768 277.374 222.837C274.104 225.669 270.692 228.518 266.941 231.539C263.349 234.483 259.732 237.303 256.335 239.94C252.829 242.65 249.045 245.513 244.78 248.68C244.533 254.124 244.267 258.944 243.973 263.392C242.62 283.391 240.655 299.688 237.801 314.537C243.026 315.802 248.293 316.924 253.471 317.878C256.616 318.444 259.407 318.902 261.999 319.272C265.799 313.328 272.441 309.376 280.02 309.376C287.823 309.376 294.629 313.569 298.367 319.809C299.794 319.548 301.166 319.242 302.488 318.892C306.05 317.97 309.303 316.628 312.172 314.898C314.904 313.195 317.107 311.102 318.698 308.688C320.292 306.201 321.345 303.361 321.821 300.258C322.28 297.181 322.237 293.686 321.691 289.872C320.761 283.313 318.351 275.953 314.326 267.368C311.03 260.43 306.848 253.298 301.544 245.569C296.854 238.727 291.561 231.823 285.811 225.046ZM245.613 209.526C245.632 219.966 245.45 230.564 245.072 241.074C247.473 238.96 249.783 236.86 251.968 234.815C258.171 229.035 264.265 222.841 270.603 215.881C271.779 214.595 272.942 213.302 274.091 212C266.806 204.297 258.626 196.312 249.114 187.623C247.819 186.443 246.51 185.274 245.195 184.111C245.447 192.453 245.588 200.987 245.613 209.526ZM236.997 101.497C237.013 101.57 237.028 101.642 237.041 101.715C238.753 110.057 240.17 118.878 241.372 128.682C241.899 132.991 242.36 137.411 242.776 142.193C243.181 146.429 243.494 150.65 243.839 155.68C244.027 158.442 244.175 161.201 244.323 163.959L244.348 164.442C245.711 165.423 247.072 166.409 248.418 167.411C252.06 170.137 255.69 172.947 259.217 175.767C268.193 182.923 276.937 190.646 285.221 198.739C286.03 197.726 286.838 196.711 287.633 195.689C293.21 188.546 298.33 181.404 302.849 174.46C305.691 170.066 307.762 166.68 309.567 163.481C311.671 159.858 313.656 156.085 315.471 152.253C319.53 143.687 322.028 136.207 323.105 129.383C323.432 127.359 323.607 125.547 323.639 123.838C323.68 121.635 323.61 120 323.41 118.538C322.926 115.051 321.857 111.937 320.233 109.287C318.496 106.532 316.147 104.158 313.259 102.246C312.632 101.83 311.948 101.416 311.22 101.016C300.188 95.4921 283.943 94.8931 277.474 94.8931H277.035C269.768 95.1111 261.789 96.0501 252.681 97.7591C247.64 98.7361 242.495 99.9601 236.997 101.497ZM224.646 105.314C210.154 110.235 195.119 116.835 179.914 124.946C183.704 126.91 187.483 128.937 191.15 130.969C200.617 136.239 207.842 140.446 214.587 144.609C222.545 149.517 230.199 154.52 237.339 159.48C237.448 159.555 237.555 159.629 237.664 159.705C237.5 158.619 237.328 157.533 237.151 156.449C235.822 148.168 234.03 139.412 231.822 130.421C229.793 122.085 227.379 113.641 224.646 105.314ZM117.318 96.9701L117.454 97.0171C133.527 102.846 149.785 109.853 167.156 118.442C168.457 119.092 169.755 119.743 171.05 120.395C172.348 119.743 173.643 119.092 174.944 118.444C191.371 110.32 206.823 103.608 222.141 97.9441C220.003 91.8801 217.741 86.0371 215.408 80.5571C213.408 75.8781 211.702 72.1611 210.043 68.8611C208.178 65.0381 206.151 61.2901 204.009 57.7001C199.166 49.5591 194.347 43.3181 189.28 38.6091C188.089 37.4991 186.958 36.5491 185.842 35.7121C181.92 40.5661 175.928 43.6741 169.204 43.6741C162.821 43.6741 157.11 40.8651 153.19 36.4331C152.71 36.8001 152.228 37.1511 151.747 37.5461C146.241 42.0621 141.003 48.2281 135.733 56.3981C131.598 62.7861 127.683 70.3261 123.764 79.4481C121.428 84.9751 119.262 90.8641 117.318 96.9701ZM105.628 156.44C105.542 157.308 105.461 158.176 105.386 159.045C112.349 154.228 119.789 149.374 127.52 144.608C134.23 140.463 141.456 136.257 150.946 130.97C154.657 128.915 158.436 126.891 162.186 124.947C145.897 116.25 130.463 109.554 115.064 104.5C110.564 120.505 107.477 137.498 105.628 156.44ZM54.4661 195.687C55.2621 196.71 56.0691 197.726 56.8771 198.739C65.1661 190.642 73.91 182.918 82.886 175.765C86.389 172.961 90.0201 170.151 93.6741 167.413C94.4541 166.834 95.2351 166.27 96.0151 165.705L96.3771 165.443C96.7591 162.132 97.1721 158.826 97.5991 155.523C100.159 136.298 103.405 118.894 107.524 102.309L107.558 102.176C101.412 100.385 95.3131 98.9001 89.4071 97.7591C79.6721 95.9291 71.2321 94.9761 63.6141 94.8431C62.8421 94.8281 62.0721 94.8221 61.3011 94.8221C52.5961 94.8221 45.3141 95.7411 39.0381 97.6341C35.1001 98.8121 31.6701 100.363 28.8371 102.244C25.9481 104.161 23.5971 106.535 21.8521 109.302C20.2421 111.93 19.1751 115.044 18.6871 118.542C18.4891 120.02 18.4181 121.655 18.4601 123.837C18.4941 125.549 18.6681 127.362 18.9931 129.378C19.2221 130.819 19.5211 132.307 19.9031 133.888L20.0071 133.812L20.4751 136.098C20.8291 137.387 21.2371 138.734 21.6761 140.051C23.4661 145.203 28.1401 156.552 39.2661 174.488C43.7671 181.402 48.8851 188.542 54.4661 195.687ZM92.886 209.479C93.147 202.613 93.5861 195.4 94.2961 186.44C93.8581 186.834 93.419 187.229 92.985 187.626C83.465 196.324 75.2831 204.311 68.0081 212.002C69.1601 213.304 70.3211 214.597 71.4931 215.881C77.8371 222.845 83.9311 229.037 90.1261 234.814C90.9301 235.566 91.7351 236.312 92.5471 237.053C92.5441 236.923 92.5441 236.791 92.5421 236.66C92.4071 228.009 92.524 218.863 92.886 209.479ZM40.6141 245.489C42.8771 248.883 44.2031 252.957 44.2031 257.344C44.2031 269.04 34.8111 278.529 23.1621 278.718C21.8201 282.698 20.9021 286.402 20.4101 289.868C19.8641 293.687 19.8201 297.184 20.2801 300.261C20.7541 303.358 21.8071 306.199 23.4121 308.701C24.9931 311.098 27.1961 313.191 29.9421 314.906C32.7981 316.626 36.0541 317.968 39.6021 318.886C46.0961 320.61 53.7611 321.252 63.3501 320.869C67.5091 320.7 71.7381 320.345 75.9201 319.814C79.6981 319.375 83.7351 318.758 88.6331 317.876C92.9971 317.072 97.4811 316.135 101.978 315.086C98.0041 298.33 95.2761 281.115 93.8661 263.9C93.4891 259.393 93.1791 254.813 92.9481 250.287C92.8681 248.602 92.8081 246.923 92.7541 245.244L92.3211 244.919C90.1321 243.27 87.9411 241.621 85.7671 239.94C82.3601 237.294 78.7341 234.466 75.1531 231.532C71.3561 228.471 67.9431 225.627 64.7261 222.836C63.4911 221.767 62.2601 220.687 61.0361 219.6C59.2331 221.621 57.7071 223.372 56.2921 225.044C50.5671 231.789 45.2961 238.668 40.6141 245.489Z" fill="black"/>
</svg>
