<svg width="800" height="800" viewBox="0 0 800 800" fill="none" xmlns="http://www.w3.org/2000/svg">
<path fill-rule="evenodd" clip-rule="evenodd" d="M400 733.333C242.865 733.333 164.298 733.333 115.483 684.517C66.667 635.703 66.667 557.133 66.667 400C66.667 242.865 66.667 164.298 115.483 115.482C164.298 66.6667 242.865 66.6667 400 66.6667C557.134 66.6667 635.704 66.6667 684.517 115.482C733.334 164.298 733.334 242.865 733.334 400C733.334 557.133 733.334 635.703 684.517 684.517C635.704 733.333 557.134 733.333 400 733.333ZM298.989 298.989C308.752 289.226 324.581 289.226 334.344 298.989L400 364.647L465.654 298.99C475.417 289.227 491.247 289.227 501.01 298.99C510.774 308.753 510.774 324.582 501.01 334.343L435.354 400L501.01 465.657C510.774 475.417 510.774 491.247 501.01 501.01C491.247 510.773 475.417 510.773 465.654 501.01L400 435.357L334.344 501.01C324.582 510.773 308.752 510.773 298.989 501.01C289.226 491.247 289.226 475.42 298.989 465.657L364.644 400L298.989 334.343C289.226 324.581 289.226 308.752 298.989 298.989Z" fill="black"/>
</svg>
