<svg width="24" height="24" viewBox="0 0 24 24" fill="none" xmlns="http://www.w3.org/2000/svg">
<path fill-rule="evenodd" clip-rule="evenodd" d="M5 2C3.34315 2 2 3.34315 2 5V15.4C2 17.0569 3.34315 18.4 5 18.4H6.59998V19.0001C6.59998 20.1047 7.49541 21.0001 8.59998 21.0001H19C20.1045 21.0001 21 20.1047 21 19.0001V8.6001C21 7.49553 20.1045 6.6001 19 6.6001H18.4V5C18.4 3.34315 17.0569 2 15.4 2H5ZM16.4 6.6001V5C16.4 4.44772 15.9523 4 15.4 4H5C4.44772 4 4 4.44772 4 5V15.4C4 15.9523 4.44772 16.4 5 16.4H6.59998V8.6001C6.59998 7.49553 7.49541 6.6001 8.59998 6.6001H16.4Z" fill="white"/>
</svg>
