<svg width="24" height="24" viewBox="0 0 24 24" fill="none" xmlns="http://www.w3.org/2000/svg">
<path d="M6.1416 8.67554H7.49206C8.00633 8.67554 8.43676 9.0656 8.48723 9.57739L9.29647 17.7828C9.33722 18.196 9.68467 18.5109 10.0998 18.5109C10.5456 18.5109 10.9071 18.1494 10.9071 17.7036V9.67554C10.9071 9.12325 11.3548 8.67554 11.9071 8.67554H12.3038H12.7538C13.3061 8.67554 13.7538 9.12325 13.7538 9.67554V17.744C13.7538 18.1675 14.0972 18.5109 14.5207 18.5109C14.9151 18.5109 15.2452 18.2117 15.2839 17.8192L16.0967 9.57739C16.1472 9.0656 16.5776 8.67554 17.0919 8.67554H18.4661L17.493 19.1844C17.3978 20.2131 16.5347 21 15.5015 21H9.10613C8.073 21 7.2099 20.2131 7.11464 19.1844L6.1416 8.67554Z" fill="black"/>
<path d="M5 5.95264C5 5.40035 5.44772 4.95264 6 4.95264H18.6068C19.1591 4.95264 19.6068 5.40035 19.6068 5.95264V7.00671H5V5.95264Z" fill="black"/>
<rect x="13.3301" y="2.89844" width="3.08112" height="2.05408" rx="1" transform="rotate(90 13.3301 2.89844)" fill="black"/>
</svg>
