<svg width="24" height="24" viewBox="0 0 24 24" fill="none" xmlns="http://www.w3.org/2000/svg">
<path d="M23.3568 16.9793L20.7736 16.2475C20.6217 16.217 20.5001 16.095 20.4698 15.9426L19.7404 13.3508C19.6188 12.8935 18.9807 12.8935 18.8591 13.3508L18.1298 15.9426C18.0994 16.095 17.9778 16.217 17.8259 16.2475L15.2428 16.9793C14.7869 17.1012 14.7869 17.7415 15.2428 17.8635L17.8259 18.5953C17.9778 18.6258 18.0994 18.7477 18.1298 18.9002L18.8591 21.4919C18.9807 21.9493 19.6188 21.9493 19.7404 21.4919L20.4698 18.9002C20.5001 18.7477 20.6217 18.6258 20.7736 18.5953L23.3568 17.8635C23.7822 17.711 23.7822 17.1012 23.3568 16.9793Z" fill="white"/>
<path d="M0.875745 6.27249L3.95306 7.14428C4.13408 7.1806 4.2789 7.3259 4.3151 7.50752L5.18399 10.5951C5.3288 11.14 6.08908 11.14 6.2339 10.5951L7.10279 7.50752C7.13899 7.3259 7.28381 7.1806 7.46483 7.14428L10.5421 6.27249C11.0852 6.12719 11.0852 5.36437 10.5421 5.21907L7.46483 4.34728C7.28381 4.31096 7.13899 4.16566 7.10279 3.98404L6.2339 0.896445C6.08908 0.351576 5.3288 0.351576 5.18399 0.896445L4.3151 3.98404C4.2789 4.16566 4.13408 4.31096 3.95306 4.34728L0.875745 5.21907C0.368892 5.36437 0.368892 6.12719 0.875745 6.27249Z" fill="white"/>
<path d="M15.8867 4.6589L18.3651 5.36103C18.5109 5.39028 18.6276 5.50731 18.6567 5.65358L19.3565 8.14028C19.4732 8.57911 20.0855 8.57911 20.2021 8.14028L20.9019 5.65358C20.931 5.50731 21.0477 5.39028 21.1935 5.36103L23.6719 4.6589C24.1093 4.54188 24.1093 3.92752 23.6719 3.8105L21.1935 3.10837C21.0477 3.07912 20.931 2.9621 20.9019 2.81582L20.2021 0.329122C20.0855 -0.109707 19.4732 -0.109707 19.3565 0.329122L18.6567 2.81582C18.6276 2.9621 18.5109 3.07912 18.3651 3.10837L15.8867 3.8105C15.4785 3.95678 15.4785 4.54188 15.8867 4.6589Z" fill="white"/>
<path d="M0.240553 21.2428C-0.0801843 21.5646 -0.0801843 22.1204 0.240553 22.4423L1.55266 23.7587C1.8734 24.0806 2.4274 24.0806 2.74814 23.7587L12.9895 13.4832L10.4819 10.9673L0.240553 21.2428Z" fill="white"/>
<path d="M15.7597 9.47508L14.4476 8.15859C14.1269 7.83678 13.5729 7.83678 13.2521 8.15859L11.8525 9.56285L14.3601 12.0788L15.7597 10.6745C16.0804 10.3527 16.0804 9.82614 15.7597 9.47508Z" fill="white"/>
</svg>
