<svg width="24" height="24" viewBox="0 0 24 24" fill="none" xmlns="http://www.w3.org/2000/svg">
<path fill-rule="evenodd" clip-rule="evenodd" d="M3.31045 9.25762C2.97934 8.81596 2.35292 8.72611 1.91099 9.057C1.4689 9.38801 1.37885 10.0147 1.70986 10.4568L2.50951 9.85811C1.70986 10.4568 1.71009 10.4571 1.71033 10.4575L1.71088 10.4582L1.71226 10.46L1.71608 10.4651L1.72795 10.4807C1.73775 10.4934 1.75129 10.5109 1.76852 10.5328C1.80299 10.5767 1.85225 10.6382 1.91586 10.715C2.04301 10.8683 2.2279 11.0828 2.46686 11.3381C2.51744 11.3921 2.5705 11.448 2.62601 11.5057L1.03023 13.2094C0.652684 13.6125 0.652684 14.266 1.03023 14.6691C1.40778 15.0722 2.0199 15.0722 2.39745 14.6691L4.09372 12.8581C4.23386 12.9727 4.3797 13.0881 4.5311 13.2036C5.02405 13.5796 5.58156 13.9601 6.19798 14.3134L4.84491 16.8156C4.5822 17.3014 4.75036 17.9301 5.22051 18.2199C5.69065 18.5097 6.28474 18.3508 6.54745 17.865L8.00061 15.1778C8.93587 15.5409 9.96249 15.8092 11.068 15.9127V19.041C11.068 19.5933 11.5157 20.041 12.068 20.041C12.6203 20.041 13.068 19.5933 13.068 19.041V15.9127C14.1734 15.8092 15.2001 15.5408 16.1353 15.1778L17.5885 17.865C17.8512 18.3508 18.4453 18.5097 18.9154 18.2199C19.3856 17.9301 19.5537 17.3014 19.291 16.8156L17.9379 14.3134C18.5543 13.9601 19.1118 13.5796 19.6048 13.2036C19.7284 13.1093 19.8484 13.015 19.9645 12.9212L21.6017 14.6691C21.9792 15.0722 22.5914 15.0722 22.9689 14.6691C23.3465 14.266 23.3465 13.6125 22.9689 13.2094L21.4403 11.5774C21.5214 11.4942 21.5977 11.4143 21.669 11.3381C21.908 11.0828 22.0929 10.8683 22.22 10.715C22.2836 10.6382 22.3329 10.5767 22.3674 10.5328C22.3846 10.5109 22.3981 10.4934 22.4079 10.4807L22.4198 10.4651L22.4236 10.46L22.425 10.4582L22.4256 10.4575C22.4258 10.4571 22.426 10.4568 21.6261 9.85794L22.426 10.4568C22.757 10.0147 22.667 9.38801 22.2249 9.057C21.783 8.72611 21.1565 8.81597 20.8254 9.25762L20.8251 9.25813L20.8209 9.26358C20.8159 9.27012 20.8073 9.28126 20.7951 9.29671C20.7708 9.32762 20.7324 9.37568 20.6804 9.43847C20.5762 9.56412 20.4178 9.7482 20.209 9.97125C20.0193 10.1738 19.7892 10.4073 19.5215 10.6577C19.4602 10.6985 19.4022 10.7474 19.349 10.8043C19.3317 10.8227 19.3152 10.8417 19.2995 10.8611C19.0288 11.1042 18.7255 11.3589 18.3918 11.6134C16.8158 12.8155 14.6363 13.9595 12.0679 13.9595C9.49957 13.9595 7.32008 12.8155 5.74405 11.6134C4.96137 11.0164 4.34552 10.4184 3.92691 9.97125C3.71809 9.7482 3.55971 9.56412 3.45553 9.43847C3.40348 9.37568 3.36507 9.32762 3.34077 9.29671C3.32863 9.28126 3.32002 9.27012 3.31501 9.26358L3.31083 9.25813L2.51035 9.85748C3.31083 9.25813 3.31064 9.25787 3.31045 9.25762Z" fill="#9E9EBE"/>
</svg>
