<svg width="64" height="64" viewBox="0 0 64 64" fill="none" xmlns="http://www.w3.org/2000/svg">
<path d="M29.9999 7.53995C29.9999 7.29018 30.0491 7.04285 30.1447 6.81209C30.2403 6.58133 30.3804 6.37165 30.557 6.19504C30.7336 6.01842 30.9433 5.87832 31.174 5.78273C31.4048 5.68715 31.6521 5.63795 31.9019 5.63795C32.1517 5.63795 32.399 5.68715 32.6298 5.78273C32.8605 5.87832 33.0702 6.01842 33.2468 6.19504C33.4234 6.37165 33.5635 6.58133 33.6591 6.81209C33.7547 7.04285 33.8039 7.29018 33.8039 7.53995C33.8039 8.04439 33.6035 8.52818 33.2468 8.88487C32.8901 9.24156 32.4063 9.44195 31.9019 9.44195C31.3975 9.44195 30.9137 9.24156 30.557 8.88487C30.2003 8.52818 29.9999 8.04439 29.9999 7.53995ZM7.30791 24.76C7.30791 24.5102 7.3571 24.2629 7.45269 24.0321C7.54827 23.8013 7.68837 23.5917 7.86499 23.415C8.04161 23.2384 8.25128 23.0983 8.48204 23.0027C8.7128 22.9071 8.96013 22.858 9.20991 22.858C9.45968 22.858 9.70701 22.9071 9.93777 23.0027C10.1685 23.0983 10.3782 23.2384 10.5548 23.415C10.7314 23.5917 10.8715 23.8013 10.9671 24.0321C11.0627 24.2629 11.1119 24.5102 11.1119 24.76C11.1119 25.2644 10.9115 25.7482 10.5548 26.1049C10.1981 26.4616 9.71435 26.662 9.20991 26.662C8.70546 26.662 8.22168 26.4616 7.86499 26.1049C7.50829 25.7482 7.30791 25.2644 7.30791 24.76ZM52.6919 24.848C52.6919 24.3435 52.8923 23.8597 53.249 23.503C53.6057 23.1463 54.0895 22.946 54.5939 22.946C55.0983 22.946 55.5821 23.1463 55.9388 23.503C56.2955 23.8597 56.4959 24.3435 56.4959 24.848C56.4959 25.3524 56.2955 25.8362 55.9388 26.1929C55.5821 26.5496 55.0983 26.75 54.5939 26.75C54.0895 26.75 53.6057 26.5496 53.249 26.1929C52.8923 25.8362 52.6919 25.3524 52.6919 24.848ZM12.8119 27.46C13.2322 27.2723 13.561 26.9257 13.7263 26.4961C13.8916 26.0665 13.8799 25.589 13.6939 25.168L12.8499 23.26H16.1699V38.22H9.47191C8.64546 35.3167 8.38807 32.281 8.71391 29.28L12.8119 27.46ZM26.6959 27.828V23.418H34.5999C35.0079 23.418 37.4799 23.89 37.4799 25.738C37.4799 27.274 35.5799 27.826 34.0199 27.826L26.6959 27.828ZM15.9039 51.57C15.9039 51.3202 15.9531 51.0729 16.0487 50.8421C16.1443 50.6113 16.2844 50.4017 16.461 50.225C16.6376 50.0484 16.8473 49.9083 17.078 49.8127C17.3088 49.7172 17.5561 49.668 17.8059 49.668C18.0557 49.668 18.303 49.7172 18.5338 49.8127C18.7645 49.9083 18.9742 50.0484 19.1508 50.225C19.3274 50.4017 19.4675 50.6113 19.5631 50.8421C19.6587 51.0729 19.7079 51.3202 19.7079 51.57C19.7079 52.0744 19.5075 52.5582 19.1508 52.9149C18.7941 53.2716 18.3103 53.472 17.8059 53.472C17.3015 53.472 16.8177 53.2716 16.461 52.9149C16.1043 52.5582 15.9039 52.0744 15.9039 51.57ZM44.0899 51.658C44.0899 51.1535 44.2903 50.6697 44.647 50.313C45.0037 49.9563 45.4875 49.756 45.9919 49.756C46.4963 49.756 46.9801 49.9563 47.3368 50.313C47.6935 50.6697 47.8939 51.1535 47.8939 51.658C47.8939 52.1624 47.6935 52.6462 47.3368 53.0029C46.9801 53.3596 46.4963 53.56 45.9919 53.56C45.4875 53.56 45.0037 53.3596 44.647 53.0029C44.2903 52.6462 44.0899 52.1624 44.0899 51.658ZM44.6779 47.344C43.7379 47.144 42.8179 47.74 42.6179 48.678L41.6639 53.134C38.5935 54.5246 35.2592 55.2361 31.8886 55.2199C28.5181 55.2036 25.1907 54.4601 22.1339 53.04L21.1799 48.584C20.9799 47.644 20.0599 47.048 19.1199 47.25L15.1859 48.094C14.455 47.3411 13.7754 46.54 13.1519 45.696H32.2919C32.5079 45.696 32.6519 45.656 32.6519 45.46V38.69C32.6519 38.49 32.5079 38.454 32.2919 38.454H26.6919V34.162H32.7459C33.2979 34.162 35.6999 34.322 36.4699 37.39L37.5999 42.39C37.9599 43.49 39.4259 45.696 40.9859 45.696H50.8659C50.2028 46.5829 49.4777 47.4216 48.6959 48.206L44.6779 47.344ZM55.3059 29.468C55.4404 30.8193 55.4572 32.1797 55.3559 33.534H52.9559C52.7159 33.534 52.6159 33.694 52.6159 33.928V35.032C52.6159 37.632 51.1519 38.192 49.8679 38.338C48.6479 38.478 47.2879 37.826 47.1239 37.078C46.4039 33.022 45.2039 32.158 43.3239 30.658C45.6779 29.162 48.1279 26.958 48.1279 24.004C48.1279 20.816 45.9419 18.808 44.4519 17.824C42.3619 16.444 40.0479 16.17 39.4239 16.17H14.5539C17.9892 12.3315 22.5943 9.73265 27.6559 8.77595L30.5859 11.85C31.2459 12.544 32.3459 12.57 33.0379 11.906L36.3179 8.77195C39.659 9.39755 42.8239 10.7429 45.5927 12.7147C48.3616 14.6864 50.668 17.2372 52.3519 20.19L50.1079 25.258C49.9219 25.679 49.9102 26.1565 50.0755 26.5861C50.2409 27.0157 50.5696 27.3623 50.9899 27.55L55.3059 29.468ZM60.9019 29.548L60.8259 28.764L63.1379 26.608C63.6079 26.168 63.4319 25.288 62.8319 25.064L59.8779 23.96L59.6459 23.2L61.4859 20.64C61.8619 20.12 61.5159 19.29 60.8859 19.186L57.7699 18.68L57.3959 17.98L58.7059 15.106C58.9739 14.52 58.4759 13.772 57.8319 13.796L54.6719 13.906L54.1719 13.3L54.8979 10.22C55.0439 9.59395 54.4099 8.95995 53.7839 9.10595L50.7039 9.83195L50.0959 9.33195L50.2059 6.17195C50.2299 5.53195 49.4819 5.03195 48.8979 5.29795L46.0259 6.60795L45.3259 6.23195L44.8179 3.11595C44.7179 2.48395 43.8839 2.13995 43.3639 2.51595L40.8039 4.35595L40.0439 4.12595L38.9399 1.17195C38.7159 0.571953 37.8339 0.395953 37.3959 0.863953L35.2399 3.17595L34.4559 3.09995L32.7919 0.409953C32.4559 -0.134047 31.5519 -0.134047 31.2179 0.409953L29.5539 3.09995L28.7699 3.17595L26.6099 0.859953C26.1699 0.391953 25.2899 0.565953 25.0659 1.16795L23.9619 4.12195L23.2019 4.35195L20.6419 2.51195C20.1219 2.13595 19.2899 2.48195 19.1879 3.11195L18.6799 6.22795L17.9799 6.60395L15.1079 5.29395C14.5239 5.02795 13.7739 5.52795 13.7999 6.16795L13.9099 9.32795L13.3019 9.82795L10.2219 9.10195C9.59591 8.95595 8.96191 9.58995 9.10791 10.216L9.83391 13.296L9.33391 13.902L6.17391 13.792C5.53391 13.772 5.03391 14.516 5.29991 15.102L6.60991 17.976L6.23391 18.676L3.11791 19.182C2.48591 19.282 2.14191 20.116 2.51791 20.636L4.35791 23.196L4.12591 23.956L1.17191 25.06C0.571906 25.284 0.395906 26.166 0.865906 26.604L3.17791 28.76L3.10191 29.544L0.411906 31.208C-0.132094 31.544 -0.132094 32.448 0.411906 32.782L3.10191 34.446L3.17791 35.23L0.859906 37.394C0.391906 37.834 0.565906 38.714 1.16591 38.938L4.11991 40.042L4.35191 40.802L2.51191 43.362C2.13791 43.882 2.48191 44.714 3.11191 44.816L6.22591 45.322L6.60191 46.022L5.29191 48.894C5.02591 49.478 5.52791 50.228 6.16591 50.204L9.32591 50.094L9.82591 50.702L9.09991 53.782C8.95391 54.406 9.58791 55.042 10.2139 54.894L13.2939 54.168L13.9019 54.668L13.7919 57.828C13.7679 58.468 14.5159 58.968 15.0999 58.702L17.9719 57.392L18.6719 57.768L19.1799 60.882C19.2799 61.516 20.1139 61.858 20.6339 61.486L23.1939 59.642L23.9539 59.874L25.0579 62.828C25.2819 63.428 26.1639 63.604 26.6019 63.134L28.7579 60.822L29.5419 60.902L31.2059 63.592C31.5419 64.132 32.4419 64.136 32.7799 63.592L34.4439 60.902L35.2279 60.822L37.3839 63.134C37.8239 63.604 38.7039 63.428 38.9279 62.828L40.0319 59.874L40.7919 59.642L43.3519 61.486C43.8719 61.86 44.7039 61.516 44.8059 60.882L45.3139 57.768L46.0139 57.392L48.8859 58.702C49.4699 58.968 50.2179 58.47 50.1939 57.828L50.0839 54.668L50.6899 54.168L53.7699 54.894C54.3959 55.04 55.0299 54.406 54.8839 53.782L54.1579 50.702L54.6579 50.094L57.8179 50.204C58.4579 50.23 58.9579 49.478 58.6919 48.894L57.3819 46.022L57.7559 45.322L60.8719 44.816C61.5059 44.716 61.8519 43.884 61.4719 43.362L59.6319 40.802L59.8639 40.042L62.8179 38.938C63.4179 38.712 63.5939 37.832 63.1239 37.394L60.8119 35.238L60.8879 34.454L63.5779 32.79C64.1219 32.454 64.1239 31.554 63.5779 31.216L60.9019 29.548Z" fill="black"/>
</svg>
