<svg width="800" height="800" viewBox="0 0 800 800" fill="none" xmlns="http://www.w3.org/2000/svg">
<path fill-rule="evenodd" clip-rule="evenodd" d="M400 733.333C242.865 733.333 164.298 733.333 115.482 684.517C66.6667 635.703 66.6667 557.133 66.6667 400C66.6667 242.865 66.6667 164.298 115.482 115.482C164.298 66.6667 242.865 66.6667 400 66.6667C557.133 66.6667 635.703 66.6667 684.517 115.482C733.333 164.298 733.333 242.865 733.333 400C733.333 557.133 733.333 635.703 684.517 684.517C635.703 733.333 557.133 733.333 400 733.333ZM400 275C413.807 275 425 286.193 425 300V375H500C513.807 375 525 386.193 525 400C525 413.807 513.807 425 500 425H425V500C425 513.807 413.807 525 400 525C386.193 525 375 513.807 375 500V425H300C286.193 425 275 413.807 275 400C275 386.193 286.193 375 300 375H375V300C375 286.193 386.193 275 400 275Z" fill="#1C274C"/>
</svg>
