<svg width="800" height="800" viewBox="0 0 800 800" fill="none" xmlns="http://www.w3.org/2000/svg">
<path fill-rule="evenodd" clip-rule="evenodd" d="M400 733.333C584.093 733.333 733.333 584.093 733.333 400C733.333 215.905 584.093 66.6666 400 66.6666C215.905 66.6666 66.6666 215.905 66.6666 400C66.6666 584.093 215.905 733.333 400 733.333ZM467.677 282.322C477.44 292.085 477.44 307.915 467.677 317.678L385.357 400L467.677 482.323C477.44 492.087 477.44 507.913 467.677 517.677C457.913 527.44 442.087 527.44 432.323 517.677L332.322 417.677C322.559 407.913 322.559 392.087 332.322 382.323L432.323 282.322C442.087 272.559 457.913 272.559 467.677 282.322Z" fill="black"/>
</svg>

