<svg width="512" height="512" viewBox="0 0 512 512" fill="none" xmlns="http://www.w3.org/2000/svg">
<path d="M410 102H384V128H410V102Z" fill="black"/>
<path d="M461 154H435V179H461V154Z" fill="black"/>
<path d="M358 128V102.4V77H333V102.4V128V153.6V179H358V153.6V128Z" fill="#868584"/>
<path d="M128 204.8V230.4V256V281.6V307H154V281.6V256V230.4V204.8V179H128V204.8Z" fill="#868584"/>
<path d="M230 204.8V230.4V256V281.6V307.2V333H256V307.2V281.6V256V230.4V204.8V179H230V204.8Z" fill="#868584"/>
<path d="M358 179V204.8V230H384V204.8V179H358Z" fill="#868584"/>
<path d="M77 230.4V256H102V230.4V205H77V230.4Z" fill="#868584"/>
<path d="M179 230.4V256V281.6V307.2V333H205V307.2V281.6V256V230.4V205H179V230.4Z" fill="#868584"/>
<path d="M307 204.8V179.2V153.6V128H282V153.6V179.2V204.8V230.4V256H307V230.4V204.8Z" fill="#868584"/>
<path d="M307 281.6V307H333V281.6V256H307V281.6Z" fill="#868584"/>
<path d="M435 128V102.4V77H410V51H384H358V76.8V102.4V128V153.6V179H384H409.6H435V154H461V128H435ZM384 102H410V128H384V102Z" fill="#CDCDCD"/>
<path d="M333 153.6V128V102H307V128V153.6V179.2V204.8V230.4V256H333V281.6V307H358V281.6V256H384V230H358V204.8V179H333V153.6Z" fill="#CDCDCD"/>
<path d="M307 281.6V256H282V230.4V204.8V179.2V154H256V179.2V204.8V230.4V256V281.6V307.2V333H230V307.2V281.6V256V230.4V205H205V230.4V256V281.6V307.2V333H179V307.2V281.6V256V230.4V204.8V179H154V204.8V230.4V256V281.6V307H128V281.6V256V230.4V204.8V179H102V204.8V230.4V256H77V230H51V256V281.6V307.2V333H77V307.2V282H102V307.2V332.8V358.4V384V409.6V435.2V461H128V435.2V409.6V384V358H154V384V409.6V435.2V461H179V435.2V409.6V384V358H204.8H230.4H256V384V409.6V435.2V461H282V435.2V409.6V384V358H307V384V409.6V435.2V461H333V435.2V409.6V384V358.4V332.8V307H307V281.6Z" fill="#CDCDCD"/>
</svg>
