<svg width="296" height="282" viewBox="0 0 296 282" fill="none" xmlns="http://www.w3.org/2000/svg">
<path d="M252.6 14.2C250.5 12.1 247.9 11 245 11H50.8C47.9 11 45.3 12.1 43.2 14.2C41.1 16.3 40 18.9 40 21.8V151.3C40 161 41.9 170.5 45.6 180C49.4 189.5 54 197.9 59.6 205.3C65.2 212.7 71.8 219.8 79.5 226.8C87.2 233.8 94.3 239.6 100.8 244.2C107.3 248.8 114.1 253.2 121.2 257.3C128.3 261.4 133.3 264.2 136.3 265.6C139.3 267.1 141.7 268.2 143.5 269C144.8 269.7 146.3 270 147.9 270C149.5 270 150.9 269.7 152.3 269C154.1 268.2 156.5 267.1 159.5 265.6C162.5 264.1 167.5 261.4 174.6 257.3C181.7 253.2 188.5 248.8 195 244.2C201.5 239.6 208.6 233.8 216.3 226.8C224 219.8 230.6 212.7 236.2 205.3C241.8 197.9 246.4 189.5 250.2 180C254 170.5 255.8 160.9 255.8 151.3V21.8C255.8 18.9 254.7 16.4 252.6 14.2ZM227.6 152.5C227.6 199.4 148 239.7 148 239.7V38.7H227.6C227.6 38.8 227.6 105.6 227.6 152.5Z" fill="#175DDC"/>
</svg>

