<svg width="24" height="24" viewBox="0 0 24 24" fill="none" xmlns="http://www.w3.org/2000/svg">
<path d="M6 20C6 19.4477 6.44772 19 7 19H19C19.5523 19 20 19.4477 20 20C20 20.5523 19.5523 21 19 21H7C6.44772 21 6 20.5523 6 20Z" fill="black"/>
<path fill-rule="evenodd" clip-rule="evenodd" d="M17.0098 4.2032L18.1181 5.31156C18.3891 5.60712 18.3891 6.05046 18.1181 6.32139L16.9359 7.50364L14.8177 5.38545L15.9999 4.2032C16.2709 3.93227 16.7389 3.93227 17.0098 4.2032ZM7.41867 17.0458L15.7786 8.68587L13.6604 6.56767L5.30047 14.9276C5.11402 15.1141 5.00875 15.3666 5.00759 15.6303L5 17.3463L6.71598 17.3387C6.97966 17.3375 7.23221 17.2323 7.41867 17.0458Z" fill="black"/>
</svg>
