<svg width="800" height="800" viewBox="0 0 800 800" fill="none" xmlns="http://www.w3.org/2000/svg">
<path d="M539.667 66.6667H260.333C139 66.6667 66.6667 139 66.6667 260.333V539.333C66.6667 661 139 733.333 260.333 733.333H539.333C660.667 733.333 733 661 733 539.667V260.333C733.333 139 661 66.6667 539.667 66.6667ZM575 411C575 424.667 563.667 436 550 436C536.333 436 525 424.667 525 411V310.333L267.667 567.667C262.667 572.667 256.333 575 250 575C243.667 575 237.333 572.667 232.333 567.667C222.667 558 222.667 542 232.333 532.333L489.667 275H389C375.333 275 364 263.667 364 250C364 236.333 375.333 225 389 225H550C563.667 225 575 236.333 575 250V411Z" fill="#292D32"/>
</svg>
