<svg width="800" height="800" viewBox="0 0 800 800" fill="none" xmlns="http://www.w3.org/2000/svg">
<path fill-rule="evenodd" clip-rule="evenodd" d="M400 733.333C584.093 733.333 733.333 584.093 733.333 400C733.333 215.905 584.093 66.6666 400 66.6666C215.905 66.6666 66.6667 215.905 66.6667 400C66.6667 584.093 215.905 733.333 400 733.333ZM332.322 282.322C342.087 272.559 357.913 272.559 367.677 282.322L467.677 382.323C477.44 392.087 477.44 407.913 467.677 417.677L367.677 517.677C357.913 527.44 342.087 527.44 332.322 517.677C322.559 507.913 322.559 492.087 332.322 482.323L414.643 400L332.322 317.678C322.559 307.915 322.559 292.085 332.322 282.322Z" fill="black"/>
</svg>

