
<svg width="24" height="24" viewBox="0 0 24 24" fill="none" xmlns="http://www.w3.org/2000/svg">
<path fill-rule="evenodd" clip-rule="evenodd" d="M10.4755 0C9.97432 0 9.55054 0.37103 9.4843 0.867836L9.10853 3.68612C8.78541 3.79848 8.47086 3.92915 8.16612 4.07688L5.90729 2.34954C5.50915 2.04509 4.94714 2.08239 4.59273 2.43679L2.43679 4.59274C2.08238 4.94714 2.04508 5.50916 2.34953 5.90729L4.07686 8.1661C3.92911 8.47087 3.79843 8.78545 3.68606 9.1086L0.867836 9.48436C0.37103 9.5506 0 9.97438 0 10.4756V13.5246C0 14.0258 0.37103 14.4495 0.867836 14.5158L3.68607 14.8915C3.79843 15.2146 3.92908 15.5292 4.0768 15.8339L2.34951 18.0927C2.04506 18.4908 2.08236 19.0528 2.43677 19.4072L4.59271 21.5632C4.94711 21.9176 5.50913 21.9549 5.90727 21.6504L8.16598 19.9232C8.47077 20.0709 8.78537 20.2016 9.10854 20.314L9.4843 23.1322C9.55054 23.629 9.97432 24 10.4755 24H13.5245C14.0257 24 14.4495 23.629 14.5157 23.1322L14.8915 20.314C15.2146 20.2016 15.5292 20.0709 15.834 19.9232L18.0928 21.6506C18.4909 21.955 19.0529 21.9177 19.4073 21.5633L21.5633 19.4074C21.9177 19.053 21.955 18.4909 21.6505 18.0928L19.9232 15.8339C20.0709 15.5292 20.2016 15.2147 20.3139 14.8915L23.1322 14.5158C23.629 14.4495 24 14.0258 24 13.5246V10.4756C24 9.97438 23.629 9.5506 23.1322 9.48436L20.3139 9.1086C20.2016 8.78543 20.0709 8.47084 19.9231 8.16606L21.6505 5.90715C21.955 5.50902 21.9177 4.947 21.5633 4.5926L19.4073 2.43665C19.0529 2.08225 18.4909 2.04495 18.0928 2.3494L15.8338 4.07684C15.5291 3.92913 15.2146 3.79847 14.8915 3.68612L14.5157 0.867836C14.4495 0.37103 14.0257 0 13.5245 0H10.4755ZM12 16.7999C14.651 16.7999 16.8 14.6509 16.8 11.9999C16.8 9.34895 14.651 7.19992 12 7.19992C9.34903 7.19992 7.19999 9.34895 7.19999 11.9999C7.19999 14.6509 9.34903 16.7999 12 16.7999Z" fill="white"/>
</svg>
