
<svg width="28" height="28" viewBox="0 0 28 28" fill="none" xmlns="http://www.w3.org/2000/svg">
<path fill-rule="evenodd" clip-rule="evenodd" d="M12.4755 2C11.9743 2 11.5505 2.37103 11.4843 2.86784L11.1085 5.68612C10.7854 5.79848 10.4709 5.92915 10.1661 6.07688L7.90729 4.34954C7.50915 4.04509 6.94714 4.08239 6.59273 4.43679L4.43679 6.59274C4.08238 6.94714 4.04508 7.50916 4.34953 7.90729L6.07686 10.1661C5.92911 10.4709 5.79843 10.7854 5.68606 11.1086L2.86784 11.4844C2.37103 11.5506 2 11.9744 2 12.4756V15.5246C2 16.0258 2.37103 16.4495 2.86784 16.5158L5.68607 16.8915C5.79843 17.2146 5.92908 17.5292 6.0768 17.8339L4.34951 20.0927C4.04506 20.4908 4.08236 21.0528 4.43677 21.4072L6.59271 23.5632C6.94711 23.9176 7.50913 23.9549 7.90727 23.6504L10.166 21.9232C10.4708 22.0709 10.7854 22.2016 11.1085 22.314L11.4843 25.1322C11.5505 25.629 11.9743 26 12.4755 26H15.5245C16.0257 26 16.4495 25.629 16.5157 25.1322L16.8915 22.314C17.2146 22.2016 17.5292 22.0709 17.834 21.9232L20.0928 23.6506C20.4909 23.955 21.0529 23.9177 21.4073 23.5633L23.5633 21.4074C23.9177 21.053 23.955 20.4909 23.6505 20.0928L21.9232 17.8339C22.0709 17.5292 22.2016 17.2147 22.3139 16.8915L25.1322 16.5158C25.629 16.4495 26 16.0258 26 15.5246V12.4756C26 11.9744 25.629 11.5506 25.1322 11.4844L22.3139 11.1086C22.2016 10.7854 22.0709 10.4708 21.9231 10.1661L23.6505 7.90715C23.955 7.50902 23.9177 6.947 23.5633 6.5926L21.4073 4.43665C21.0529 4.08225 20.4909 4.04495 20.0928 4.3494L17.8338 6.07684C17.5291 5.92913 17.2146 5.79847 16.8915 5.68612L16.5157 2.86784C16.4495 2.37103 16.0257 2 15.5245 2H12.4755ZM14 18.7999C16.651 18.7999 18.8 16.6509 18.8 13.9999C18.8 11.3489 16.651 9.19992 14 9.19992C11.349 9.19992 9.19999 11.3489 9.19999 13.9999C9.19999 16.6509 11.349 18.7999 14 18.7999Z" fill="white"/>
</svg>

