<svg width="800" height="800" viewBox="0 0 800 800" fill="none" xmlns="http://www.w3.org/2000/svg">
<path d="M400 483.333V550M233.333 334.293C249.047 333.333 268.42 333.333 293.333 333.333H506.667C531.58 333.333 550.953 333.333 566.667 334.293M233.333 334.293C213.723 335.49 199.81 338.183 187.934 344.233C169.118 353.82 153.82 369.117 144.233 387.933C133.333 409.327 133.333 437.327 133.333 493.333V540C133.333 596.007 133.333 624.007 144.233 645.4C153.82 664.217 169.118 679.513 187.934 689.1C209.325 700 237.328 700 293.333 700H506.667C562.673 700 590.673 700 612.067 689.1C630.883 679.513 646.18 664.217 655.767 645.4C666.667 624.007 666.667 596.007 666.667 540V493.333C666.667 437.327 666.667 409.327 655.767 387.933C646.18 369.117 630.883 353.82 612.067 344.233C600.19 338.183 586.277 335.49 566.667 334.293M233.333 334.293V266.667C233.333 174.619 307.953 100 400 100C492.047 100 566.667 174.619 566.667 266.667V334.293" stroke="black" stroke-width="66.6667" stroke-linecap="round" stroke-linejoin="round"/>
</svg>

