<svg width="28" height="28" viewBox="0 0 28 28" fill="none" xmlns="http://www.w3.org/2000/svg">
<path fill-rule="evenodd" clip-rule="evenodd" d="M8.21388 8.75796V11.6021H19.2981V8.75796C19.2981 5.94448 17.0173 3.6637 14.2038 3.6637H13.3081C10.4947 3.6637 8.21388 5.94448 8.21388 8.75796ZM5.86268 8.75796L5.86268 11.6021H5C3.34315 11.6021 2 12.9453 2 14.6021V22.9998C2 24.6567 3.34314 25.9998 5 25.9998H22.5119C24.1688 25.9998 25.5119 24.6567 25.5119 22.9998V14.6021C25.5119 12.9453 24.1688 11.6021 22.5119 11.6021H21.6493V8.75796C21.6493 4.64595 18.3158 1.3125 14.2038 1.3125H13.3081C9.19613 1.3125 5.86268 4.64595 5.86268 8.75796ZM16.1072 17.2835C16.1072 18.1125 15.6344 18.8363 14.9316 19.2235V21.6895C14.9316 22.3388 14.4052 22.8651 13.756 22.8651C13.1067 22.8651 12.5804 22.3388 12.5804 21.6895V19.2235C11.8776 18.8363 11.4048 18.1125 11.4048 17.2835C11.4048 16.0466 12.4575 15.0439 13.756 15.0439C15.0545 15.0439 16.1072 16.0466 16.1072 17.2835Z" fill="white"/>
</svg>

