<svg width="28" height="28" viewBox="0 0 28 28" fill="none" xmlns="http://www.w3.org/2000/svg">
<path d="M25.3568 18.9793L22.7736 18.2475C22.6217 18.217 22.5001 18.095 22.4698 17.9426L21.7404 15.3508C21.6188 14.8935 20.9807 14.8935 20.8591 15.3508L20.1298 17.9426C20.0994 18.095 19.9778 18.217 19.8259 18.2475L17.2428 18.9793C16.7869 19.1012 16.7869 19.7415 17.2428 19.8635L19.8259 20.5953C19.9778 20.6258 20.0994 20.7477 20.1298 20.9002L20.8591 23.4919C20.9807 23.9493 21.6188 23.9493 21.7404 23.4919L22.4698 20.9002C22.5001 20.7477 22.6217 20.6258 22.7736 20.5953L25.3568 19.8635C25.7822 19.711 25.7822 19.1012 25.3568 18.9793Z" fill="white"/>
<path d="M2.87574 8.27297L5.95306 9.14476C6.13408 9.18109 6.2789 9.32639 6.3151 9.50801L7.18399 12.5956C7.3288 13.1405 8.08908 13.1405 8.2339 12.5956L9.10279 9.50801C9.13899 9.32639 9.28381 9.18109 9.46483 9.14476L12.5421 8.27297C13.0852 8.12768 13.0852 7.36486 12.5421 7.21956L9.46483 6.34777C9.28381 6.31145 9.13899 6.16615 9.10279 5.98452L8.2339 2.89693C8.08908 2.35206 7.3288 2.35206 7.18399 2.89693L6.3151 5.98452C6.2789 6.16615 6.13408 6.31145 5.95306 6.34777L2.87574 7.21956C2.36889 7.36486 2.36889 8.12768 2.87574 8.27297Z" fill="white"/>
<path d="M17.8867 6.6589L20.3651 7.36103C20.5109 7.39028 20.6276 7.50731 20.6567 7.65358L21.3565 10.1403C21.4732 10.5791 22.0855 10.5791 22.2021 10.1403L22.9019 7.65358C22.931 7.50731 23.0477 7.39028 23.1935 7.36103L25.6719 6.6589C26.1093 6.54188 26.1093 5.92752 25.6719 5.8105L23.1935 5.10837C23.0477 5.07912 22.931 4.9621 22.9019 4.81582L22.2021 2.32912C22.0855 1.89029 21.4732 1.89029 21.3565 2.32912L20.6567 4.81582C20.6276 4.9621 20.5109 5.07912 20.3651 5.10837L17.8867 5.8105C17.4785 5.95678 17.4785 6.54188 17.8867 6.6589Z" fill="white"/>
<path d="M2.24055 23.2433C1.91982 23.5651 1.91982 24.1209 2.24055 24.4427L3.55266 25.7592C3.8734 26.081 4.4274 26.081 4.74814 25.7592L14.9895 15.4837L12.4819 12.9678L2.24055 23.2433Z" fill="white"/>
<path d="M17.7597 11.4748L16.4476 10.1583C16.1269 9.83654 15.5729 9.83654 15.2521 10.1583L13.8525 11.5626L16.3601 14.0786L17.7597 12.6743C18.0804 12.3525 18.0804 11.8259 17.7597 11.4748Z" fill="white"/>
</svg>

