<svg width="800" height="800" viewBox="0 0 800 800" fill="none" xmlns="http://www.w3.org/2000/svg">
<path d="M100 217.46C100 204.311 110.89 193.651 124.324 193.651H283.929C284.146 165.61 287.185 127.168 315.012 100.556C336.913 79.613 366.937 66.6667 400 66.6667C433.063 66.6667 463.087 79.613 484.987 100.556C512.813 127.168 515.853 165.61 516.07 193.651H675.677C689.11 193.651 700 204.311 700 217.46C700 230.61 689.11 241.27 675.677 241.27H124.324C110.89 241.27 100 230.61 100 217.46Z" fill="#1C274C"/>
<path d="M386.887 733.333H413.117C503.367 733.333 548.49 733.333 577.83 704.56C607.17 675.787 610.173 628.587 616.177 534.19L624.827 398.173C628.083 346.953 629.71 321.346 614.993 305.117C600.273 288.889 575.417 288.889 525.707 288.889H274.295C224.583 288.889 199.728 288.889 185.009 305.117C170.29 321.346 171.919 346.953 175.176 398.173L183.826 534.19C189.83 628.587 192.831 675.787 222.171 704.56C251.511 733.333 296.635 733.333 386.887 733.333Z" fill="#1C274C"/>
</svg>
