<svg width="378" height="975" viewBox="0 0 378 975" fill="none" xmlns="http://www.w3.org/2000/svg">
<path fill-rule="evenodd" clip-rule="evenodd" d="M328.139 0.00171211H307.439C307.439 0.00171211 317.093 22.0174 325.259 34.3584C333.426 46.6977 343.097 61.7667 350.819 105.428C358.541 149.092 377.999 165.751 377.999 165.751V110.999C374.079 82.6186 328.139 0.00171211 328.139 0.00171211ZM377.999 69.1788V49.679C370.991 33.6618 366.659 0 366.659 0H351.719C362.086 14.7353 377.999 69.1788 377.999 69.1788ZM262.439 0.00171211H248.22C268.647 13.6297 283.139 68.715 283.139 68.715C276.632 28.8408 262.439 0.00171211 262.439 0.00171211ZM104.58 0.00171211H94.679C94.679 0.00171211 97.3589 22.1029 107.82 49.6807C118.281 77.2584 125.46 125.823 125.46 125.823C123.751 68.8451 104.58 0.00171211 104.58 0.00171211ZM34.5594 0.00171211H26.2795C26.2795 0.00171211 33.6351 18.6887 35.6396 58.0375C37.6434 97.3864 46.7195 102.553 59.2186 111.894C71.719 121.235 77.0384 136.965 77.0384 136.965C68.6994 110.013 57.8212 98.9728 48.418 76.6081C39.0168 54.2433 34.5594 0.00171211 34.5594 0.00171211ZM205.559 330.106C187.738 273.092 185.255 171.896 181.079 95.1786C176.903 18.4627 150.66 0.00171211 150.66 0.00171211H163.799C201.667 74.7597 195.586 180.27 194.94 226.573C194.293 272.871 205.559 330.106 205.559 330.106ZM288.359 0.00171211H283.139C294.838 16.7702 305.629 94.8535 315.54 116.072C325.451 137.29 323.46 189.893 323.46 189.893C327.01 162.151 327.699 132.806 320.4 83.5718C313.1 34.3395 288.359 0.00171211 288.359 0.00171211ZM121.319 350.07C109.646 338.956 103.563 300.259 99.3594 275.32C95.1554 250.382 87.687 201.38 62.4598 167.607C37.2313 133.833 32.7029 116.486 23.7588 72.4288C14.8154 28.3701 5.58009 0 5.58009 0H14.5799C14.5799 0 27.7346 41.6798 29.5194 60.3565C32.1774 88.1824 43.8186 116.318 54.7193 129.535C74.4693 153.481 93.419 182.464 93.419 182.464C87.5344 131.586 72.9737 113.489 58.3195 76.6064C43.6653 39.7237 41.9395 0.00171211 41.9395 0.00171211H47.7001C47.7001 0.00171211 50.165 29.4278 74.1601 78.465C98.2082 127.615 97.3688 166.425 103.5 246.536C109.631 326.646 121.319 350.07 121.319 350.07ZM304.762 238.438C305.846 197.792 308.124 151.082 304.594 112.822C300.867 72.4373 276.299 0.00171211 276.299 0.00171211H269.279C291.202 30.4101 294.442 110.859 300.599 145.323C305.559 173.086 305.12 220.899 304.762 238.438C304.701 240.688 304.645 242.925 304.594 245.141C304.594 245.143 304.675 242.672 304.762 238.438ZM0 69.1788V0.00171211C6.59857 65.0406 22.9261 122.886 34.0199 157.857C45.1131 192.83 76.6515 216.52 84.4192 272.536C92.1869 328.552 98.4331 357.595 126.539 406.249C154.645 454.903 161.369 532.998 161.369 532.998C149.768 479.936 119.245 406.285 92.159 350.072C65.0727 293.859 66.9703 230.254 35.0988 175.502C3.22796 120.747 0 69.1788 0 69.1788ZM283.32 346.356C283.32 346.356 272.595 304.343 254.34 267.893C236.084 231.443 241.829 204.251 239.039 117.001C236.25 29.7512 213.48 0.00171211 213.48 0.00171211H201.96C201.96 0.00171211 239.899 92.3308 238.499 232.143C237.917 290.379 283.32 346.356 283.32 346.356ZM235.8 0.00171211H226.62C244.372 45.4569 254.614 98.2386 257.219 122.108C259.825 145.977 270.109 202.914 271.619 244.679C273.13 286.445 283.76 336.139 296.279 355.179C308.799 374.218 314.099 409.964 314.099 409.964C313.45 375.308 299.254 333.622 291.419 307.822C283.584 282.022 277.487 239.413 272.699 165.056C267.911 90.6947 235.8 0.00171211 235.8 0.00171211ZM377.999 649.999V640.713C365.166 621.978 344.642 574.784 344.642 574.784C359.096 582.672 377.999 622.606 377.999 622.606V588.248C359.169 563.836 340.573 556.85 326.047 550.179C311.522 543.504 300.76 502.158 290.879 475.428C280.999 448.697 267.006 400.582 258.84 365.856C250.673 331.13 237.146 300.124 228.959 272.07C220.773 244.019 228.059 224.221 228.06 157.392C228.061 90.5647 194.76 0 194.76 0H189C204.467 38.0875 218.97 164.616 218.52 218.212C218.069 271.81 227.626 294.095 241.02 353.318C254.413 412.542 269.602 417.993 290.34 503.746C311.077 589.497 319.801 587.655 338.4 602.173C356.999 616.691 377.999 649.999 377.999 649.999ZM361.759 737.548C363.852 739.081 365.689 740.69 367.199 742.391C367.199 742.391 365.135 740.519 361.759 737.548C342.954 723.769 303.338 715.767 292.679 698.747C280.832 679.831 246.889 578.005 244.259 547.391C241.63 516.779 230.732 508.176 223.739 477.748C216.746 447.323 177.46 391.041 165.24 368.642C153.018 346.243 125.935 296.432 122.938 254.893C119.943 213.354 108.468 125.238 90.1791 82.6442C71.8902 40.0505 73.9796 0.00171211 73.9796 0.00171211H83.1599C83.1599 0.00171211 81.3963 17.1142 101.879 73.3581C122.364 129.602 121.568 181.552 126.72 237.714C131.871 293.877 160.02 337.07 160.02 337.07C125.113 254.943 134.232 197.319 132.119 120.715C130.008 44.11 113.76 0.00171211 113.76 0.00171211H119.339C137.633 53.8463 146.239 155.646 152.099 231.679C157.96 307.711 160.911 318.914 181.08 372.358C201.248 425.8 239.048 475.477 242.999 507.464C246.951 539.448 268.559 576.682 277.2 633.747C285.84 690.816 299.746 691.725 317.88 702.926C331.346 711.245 352.015 728.974 361.759 737.548ZM377.999 711.281V742.391C371.71 721.697 330.427 694.013 312.659 686.676C294.893 679.336 284.874 640.026 284.039 613.784C283.204 587.537 264.867 565.402 261.539 540.891C258.211 516.377 249.785 465.371 228.599 422.497C207.412 379.623 165.759 325.645 160.919 190.587C156.079 55.532 135.18 0.00171211 135.18 0.00171211C162.463 22.8748 177.648 158.929 180.72 251.643C183.791 344.357 217.619 376.535 217.619 376.535C209.884 352.004 204.733 247.845 201.599 153.214C198.465 58.5835 177.66 0.00171211 177.66 0.00171211C212.686 63.4781 209.908 181.735 211.319 226.573C212.729 271.41 227.221 362.844 231.119 376.535C235.017 390.227 255.595 475.725 262.799 501.891C270.002 528.061 280.603 556.355 285.839 596.142C291.075 635.926 321 665.515 332.757 668.106C344.514 670.697 377.999 711.281 377.999 711.281ZM311.283 342.642C304.821 328.123 284.856 260.051 283.139 180.607C281.422 101.163 258.84 31.1084 258.84 31.1084C282.589 87.9137 298.704 150.663 297.359 221C296.015 291.338 311.283 342.642 311.283 342.642ZM377.999 246.303V307.125C366.081 291.117 345.675 200.848 342.09 165.821C338.503 130.793 326.7 69.1805 326.7 69.1805C336.88 78.6498 351.687 151.599 355.379 179.652C359.07 207.706 377.999 246.303 377.999 246.303ZM269.46 273.464C244.482 210.985 248.758 212.4 248.76 173.178C248.762 133.956 242.639 87.7494 242.639 87.7494C242.639 87.7494 255.188 142.051 257.04 184.321C258.891 226.591 269.46 273.464 269.46 273.464ZM0 109.572V153.214C0 153.214 4.13497 183.079 16.5591 204.983C28.9846 226.886 40.1056 290.134 48.7796 330.108C57.4543 370.08 71.4642 418.6 101.52 453.143C131.575 487.687 137.43 541.355 137.43 541.355C137.43 541.355 80.687 484.022 71.9997 460.107C63.3124 436.192 41.9502 388.864 27.8102 361.678C13.6689 334.494 0 255.821 0 255.821V296.213C9.23866 337.979 40.1056 397.187 50.7595 441.071C61.4134 484.953 90.3715 522.084 124.561 552.963C158.748 583.842 178.11 628.64 178.11 628.64C173.155 603.163 119.425 455.683 111.961 420.178C104.495 384.673 71.4649 361.711 55.6197 322.679C39.7759 283.645 35.9554 214.214 20.3398 179.68C4.72482 145.143 0 109.572 0 109.572ZM314.819 129.537C314.819 129.537 310.53 216.544 311.399 276.715C312.269 336.887 321.782 360.535 343.8 413.214C365.817 465.893 377.999 523.712 377.999 523.712V492.141C373.2 433.994 347.314 424.159 332.099 369.572C316.885 314.984 317.879 250.25 317.879 250.25C322.199 300.701 338.226 350.489 357.659 390.464C377.092 430.44 377.999 453.143 377.999 453.143V431.787C363.246 332.258 353.372 349.373 332.099 285.536C310.827 221.698 314.819 129.537 314.819 129.537ZM376.74 346.356L377.999 348.677V376.534C376.051 355.228 354.367 326.292 342.09 270.676C329.813 215.062 333.18 165.747 333.18 165.747C336.649 214.283 354.674 298.466 361.079 316.175C367.484 333.885 376.74 346.356 376.74 346.356ZM64.0801 409.963C53.4109 393.745 28.755 333.557 22.1392 303.641C15.5247 273.725 0 230.285 0 230.285V187.571C9.36671 216.044 32.0712 281.271 35.82 315.249C39.5682 349.228 64.0801 409.963 64.0801 409.963ZM377.999 568.746V543.677C363.064 534.174 348.526 558.332 326.16 468.231C303.793 378.132 289.1 372.922 269.279 339.856C249.459 306.792 234.539 258.607 234.539 258.607C237.473 291.949 270.018 366.53 287.885 398.356C305.752 430.181 322.059 471.998 331.919 506.533C341.78 541.069 377.999 568.746 377.999 568.746ZM229.679 532.998C211.461 511.802 206.466 488.279 193.679 455.464C180.893 422.649 151.094 397.391 132.48 350.072C113.866 302.753 118.62 266.5 118.62 266.5C120.607 318.383 181.684 422.358 197.099 447.105C212.515 471.854 229.679 532.998 229.679 532.998ZM0 366.32V335.679C5.2198 365.649 25.2 411.356 25.2 411.356C11.549 396.894 0 366.32 0 366.32ZM369.879 507.837C370.309 509.163 370.678 510.435 370.979 511.641C370.979 511.641 370.595 510.274 369.879 507.837C364.283 490.579 348.248 463.602 332.82 436.89C316.206 408.125 312.209 350.07 312.209 350.07C316.619 371.019 322.868 388.952 339.48 423.892C353.42 453.214 366.147 495.119 369.879 507.837ZM355.14 554.356C343.892 533.626 324.955 526.145 311.283 471.248C297.611 416.351 269.279 382.106 269.279 382.106C286.787 425.834 290.872 453.155 304.594 495.393C318.314 537.627 355.14 554.356 355.14 554.356ZM248.399 646.745C248.399 646.745 238.26 630.143 226.8 603.568C215.34 576.995 192.034 567.274 181.44 519.067C170.845 470.862 161.497 443.707 149.4 425.747C137.303 407.787 132.66 382.104 132.66 382.104C138.562 397.824 169.902 443.707 181.98 463.819C194.058 483.932 202.12 531.867 219.96 551.567C237.799 571.267 248.399 646.745 248.399 646.745ZM274.859 974.997H258.479C256.791 957.15 233.272 925.182 221.399 891.889C209.526 858.596 193.096 819.838 171.179 802.744C149.263 785.651 135.654 799.286 108.36 769.319C81.0652 739.348 50.9845 698.225 34.0199 666.711C17.0541 635.197 0 635.604 0 635.604V604.963C0 604.963 8.48426 619.433 18.7195 621.211C28.9561 622.989 55.9654 653.692 66.5994 684.354C77.2347 715.019 112.499 753.533 112.499 753.533C100.747 724.967 90.0543 653.197 75.9602 587.782C57.4483 501.867 34.9017 475.873 20.3398 463.819C5.77781 451.766 0.000668204 435.497 0.000668204 435.497V402.07C0.000668204 402.07 4.29289 421.006 27.8109 439.676C51.3275 458.344 67.5874 505.312 85.1404 584.998C102.693 664.683 117.414 768.881 153.72 781.389C190.027 793.898 198.596 817.7 216.72 843.603C234.843 869.508 242.424 930.751 252.179 942.497C261.935 954.242 274.859 974.997 274.859 974.997ZM245.52 402.071C248.786 408.21 262.15 442.704 266.939 459.642C271.729 476.579 277.513 506.367 290.7 534.391C303.886 562.415 305.28 607.747 305.28 607.747C293.001 587 270.21 515.461 265.68 487.498C261.15 459.535 245.52 402.071 245.52 402.071ZM321.671 430.092C321.242 428.059 320.818 425.995 320.399 423.892C320.399 423.892 320.787 426.252 321.671 430.092C341.711 524.941 370.979 532.996 370.979 532.996C362.901 519.849 360.818 498.08 343.439 478.212C330.609 463.547 324.165 440.926 321.671 430.092ZM93.2392 703.39C68.3564 677.452 73.4607 665.84 68.5793 633.282C63.6992 600.729 68.1308 590.563 42.2998 553.427C16.4669 516.288 0 511.176 0 511.176V458.712C6.55743 480.711 59.2504 536.513 68.3995 596.142C77.5499 655.768 93.2392 703.39 93.2392 703.39ZM257.04 703.39C240.185 684.249 231.255 680.974 217.439 646.285C203.623 611.593 200.591 634.726 181.799 596.604C163.007 558.486 164.159 487.5 164.159 487.5C175.28 549.392 196.694 600.606 219.779 630.964C242.864 661.32 257.04 703.39 257.04 703.39ZM0 541.353V576.641C4.99554 586.321 11.8137 591.047 26.46 596.603C41.1062 602.161 55.6191 628.639 55.6191 628.639C49.3091 601.196 43.5645 588.638 24.6599 574.782C5.75525 560.927 0 541.353 0 541.353ZM377.999 799.962V821.782C377.999 821.782 358.579 821.736 342.719 805.998C326.86 790.258 312.659 782.784 312.659 782.784C322.962 797.815 319.182 805.857 332.757 832.461C346.332 859.065 377.999 887.247 377.999 887.247V920.212C330.938 877.905 309.743 802.683 292.5 767.927C275.256 733.17 242.851 761.4 231.3 742.393C219.749 723.384 186.628 705.296 145.26 652.32C103.892 599.343 86.5802 541.355 86.5802 541.355C107.552 601.619 166.358 624.418 192.6 686.678C208.14 723.547 231.361 720.542 248.76 719.643C266.16 718.741 290.377 757.154 302.58 759.57C327.81 764.566 363.83 817.44 377.999 799.962ZM377.999 765.603V784.639C351.445 783.493 340.454 760.125 332.01 750.748C328.467 746.814 307.699 740.634 286.02 726.605C264.341 712.577 257.322 679.124 254.34 652.783C251.358 626.446 241.74 580.82 241.74 580.82C241.74 580.82 247.121 596.988 252.54 618.428C275.709 710.09 292.795 719.873 325.8 732.178C358.805 744.483 377.999 765.603 377.999 765.603ZM307.439 974.997H290.34C290.34 974.997 286.929 956.592 274.319 932.745C261.709 908.898 248.992 893.864 227.159 832.46C205.327 771.056 159.498 764.645 140.58 730.781C121.661 696.917 96.2993 587.78 96.2993 587.78C96.2993 587.78 105.023 622.878 135.181 693.173C165.336 763.467 209.109 760.881 223.74 775.815C238.371 790.754 258.72 882.572 277.2 903.957C295.679 925.348 307.439 974.997 307.439 974.997ZM213.659 742.853C192.586 726.692 181.947 728.976 160.919 708.962C139.892 688.947 109.079 608.213 109.079 608.213C135.587 676.014 213.659 742.853 213.659 742.853ZM377.999 686.676V666.711C377.999 666.711 370.476 662.383 360.54 644.426C350.604 626.47 329.982 624.138 325.98 626.784C321.978 629.428 307.8 630.961 307.8 630.961C318.529 635.323 341.204 635.075 352.44 656.959C363.676 678.848 377.999 686.676 377.999 686.676ZM234.9 703.39C203.723 692.293 184.139 634.211 184.139 634.211C197.871 642.667 210.56 659.963 219.818 675.145C229.075 690.323 234.9 703.39 234.9 703.39ZM0 721.497V709.892C5.87336 714.829 32.5795 713.605 32.5795 713.605C16.6308 691.501 0 682.73 0 682.73V664.392C0 664.392 10.8948 666.507 21.2402 682.73C31.5855 698.952 71.2586 747.241 86.5802 766.533C101.902 785.825 135.72 813.557 156.24 831.532C176.76 849.509 186.768 859.69 207.72 892.354C228.672 925.018 235.98 974.997 235.98 974.997H226.26C218.057 933.642 180.434 863.534 166.32 846.391C152.206 829.247 121.932 833.741 101.879 802.746C81.8262 771.754 69.0219 749.163 43.0191 742.391C17.0176 735.616 0 721.497 0 721.497ZM216.72 974.997H201.87C193.172 924.65 167.766 893.865 155.339 885.852C142.913 877.843 123.839 873.782 123.839 873.782C127.773 880.799 133.136 901.893 143.279 920.211C153.422 938.528 169.739 974.997 169.739 974.997H154.079C154.079 974.997 137.415 940.029 128.519 920.211C119.623 900.389 111.736 860.743 99.7203 846.854C87.7049 832.963 53.7586 797.514 44.8192 781.389C35.8811 765.264 11.6996 781.389 11.6996 781.389C11.6996 781.389 19.9065 797.514 30.4204 815.748C40.933 833.978 73.2139 849.702 92.3401 867.746C111.465 885.789 132.66 974.997 132.66 974.997H119.16C111.02 917.628 84.1087 868.772 64.2606 860.784C44.4111 852.791 27.6888 831.64 15.6601 806.463C3.63137 781.283 0 781.391 0 781.391V753.534C6.94094 768.766 34.3026 766.404 42.8399 766.534C51.3759 766.664 61.1514 778.447 73.6193 800.429C86.0872 822.41 108.233 843.685 152.64 862.642C197.045 881.598 216.72 974.997 216.72 974.997ZM235.325 765.702C244.324 779.293 263.99 767.705 279.9 770.71C295.847 773.726 312.667 839.497 325.8 879.82C338.933 920.139 378 942.033 378 942.033V974.998C356.139 941.552 326.586 911.301 322.02 879.821C317.455 848.34 294.66 817.141 294.66 817.141C299.988 837.019 307.755 915.523 312.661 933.678C317.567 951.833 338.94 975 338.94 975H322.919C306.564 943.666 304.479 939.808 293.759 879.823C283.04 819.833 287.285 801.49 268.919 795.322C251.25 789.385 236.423 767.364 235.325 765.702L235.312 765.685L235.307 765.675C235.275 765.629 235.259 765.602 235.259 765.602L235.307 765.675L235.325 765.702ZM245.449 796.465C250.743 802.708 257.907 803.592 271.619 818.534C286.714 834.982 287.885 895.604 287.885 895.604C280.585 880.458 273.376 867.924 265.679 839.889C259.534 817.507 249.318 801.863 245.449 796.465C244.914 795.834 244.4 795.147 243.899 794.389C243.899 794.389 244.472 795.101 245.449 796.465ZM377.999 860.318V841.282C369.817 848.419 358.851 832.845 349.56 825.494C340.268 818.144 328.68 802.744 328.68 802.744C335.061 818.488 343.928 822.034 352.8 840.353C361.671 858.673 377.999 860.318 377.999 860.318ZM114.659 974.997C114.659 974.997 103.415 937.693 87.6591 924.156C69.8168 908.826 50.3123 907.574 32.04 894.673C13.7664 881.778 0 854.28 0 854.28V817.137C19.3777 857.383 66.8277 878.006 89.0551 905.352C111.283 932.699 114.659 974.997 114.659 974.997ZM361.619 974.997H351.539C351.539 974.997 352.636 968.401 339.3 948.995C325.962 929.591 319.626 926.502 316.259 910.461C312.893 894.42 307.799 860.318 307.799 860.318C307.799 860.318 319.888 912.987 331.379 924.156C342.872 935.328 361.619 974.997 361.619 974.997ZM0 899.318V879.82C13.9661 887.504 18.2371 915.282 30.0601 921.142C35.832 924 56.5254 925.35 69.6595 926.245C82.7949 927.144 96.2993 968.497 96.2993 968.497C84.2799 939.581 45.1357 936.438 28.6203 929.962C12.105 923.486 0 899.318 0 899.318ZM189 974.997H175.68C165.485 930.437 142.559 895.602 142.559 895.602C180.096 926.659 189 974.997 189 974.997ZM74.1594 974.997H42.8399C33.0287 964.406 39.6571 960.783 26.2795 960.138C12.9019 959.493 0 950.852 0 950.852V920.211C0 920.211 18.6366 947.628 28.6203 948.993C48.5162 951.726 74.1594 974.997 74.1594 974.997Z" fill="#fff"/>
</svg>
